<svg width="48" height="66" viewBox="0 0 48 66" fill="none" xmlns="http://www.w3.org/2000/svg">
<path opacity="0.46" d="M4.90224 59.0497C4.64922 62.7003 18.9576 66.0001 26.1877 66.0001C32.8549 66.0001 47.8275 61.8816 47.8275 58.6126C47.8275 53.9708 28.1107 54.3464 12.4043 56.2117C8.50148 55.8916 4.95917 58.354 4.90224 59.0497Z" fill="#111611"/>
<path d="M13.4668 44.1892L15.0735 42.7548L18.2934 41.8745L16.3956 43.5181L13.4668 44.1892Z" fill="#0399F2"/>
<path d="M9.59537 43.4192L8.93122 41.6093L6.21143 38.9622L7.03369 40.9322L9.59537 43.4192Z" fill="url(#paint0_linear_22_46634)"/>
<path d="M13.4672 44.1888L15.074 42.7544L8.7417 41.4862L9.59571 43.4193L13.4672 44.1888Z" fill="#057FDD"/>
<path d="M12.0752 44.9585L13.4667 44.189L9.5957 43.4195L10.7595 44.6938L12.0752 44.9585Z" fill="url(#paint1_linear_22_46634)"/>
<path d="M7.02783 40.9198L9.59585 43.3822L10.7597 44.6566C10.7597 44.6566 9.07718 43.5177 9.03291 43.4746C8.98863 43.4315 7.02783 40.9198 7.02783 40.9198Z" fill="#0E82C6"/>
<path d="M12.0757 44.9585L13.4674 44.1889L16.3962 43.5179L13.8912 44.5768L12.0757 44.9585Z" fill="#097ADB"/>
<path d="M10.4118 39.2084L14.3715 40.0764L17.3761 39.1653L15.023 37.2631L11.057 36.4012L8.36865 37.0538L10.4118 39.2084Z" fill="#BBECFF"/>
<path d="M10.4118 39.2087L14.3715 40.0767L17.3761 39.1656L14.3968 39.7689L10.5383 38.9501L8.36865 37.054L10.4118 39.2087Z" fill="white"/>
<path d="M10.8101 38.1926L14.3652 38.9005L16.4147 38.5681L14.8269 37.2261L11.215 36.4319L9.27295 36.9675L10.8101 38.1926Z" fill="#70CEF2"/>
<path d="M11.2151 36.4319L12.0185 36.6104C12.164 37.4046 13.0497 38.051 13.7013 38.4203C13.9907 38.5865 14.2908 38.7346 14.5996 38.8636L14.3655 38.9005L10.8102 38.1926L9.27295 36.9613L11.2151 36.4319Z" fill="#62C3E8"/>
<path d="M17.3761 39.1653L18.2806 41.8802L15.0737 42.7544L14.3716 40.0765L17.3761 39.1653Z" fill="#86D4FC"/>
<path d="M17.2998 39.184C16.5245 40.2641 15.8872 41.4321 15.4022 42.6623L15.0796 42.7546L14.3774 40.0767L17.2998 39.184Z" fill="#AEE6FF"/>
<path d="M10.4113 39.2086L8.74148 41.4864L6.21143 38.9624L8.3683 37.054L10.4113 39.2086Z" fill="#2BA4E2"/>
<path d="M8.1792 37.226L8.3689 37.066L10.4113 39.2207L8.74198 41.4986L8.52698 41.2893C8.67436 39.9256 8.55638 38.5471 8.1792 37.226Z" fill="#6DC6F7"/>
<path d="M14.3718 40.0767L15.074 42.7546L8.7417 41.4865L10.4118 39.2087L14.3718 40.0767Z" fill="#32ABFC"/>
<path d="M10.3042 39.3501C9.77283 40.9876 13.4165 42.3481 14.7323 42.5451C14.7813 42.5537 14.8318 42.5484 14.8778 42.5299C14.9238 42.5113 14.9633 42.4803 14.9916 42.4404L15.0739 42.7544L8.74805 41.4863L10.3042 39.3501Z" fill="#1E97F4"/>
<path opacity="0.51" d="M13.4227 44.0845C14.0705 41.8397 14.5212 39.5454 14.7701 37.2264H14.6056L11.1898 36.4753L11.038 36.4445L10.9241 36.4753C11.4808 37.7066 11.7338 39.1656 11.019 40.3846C10.7009 40.8977 10.273 41.3382 9.76431 41.676C9.25566 42.0138 8.67823 42.2411 8.07129 42.3423L8.86831 43.3704C10.4181 43.3412 11.9607 43.5831 13.4227 44.0845Z" fill="#024784"/>
<path d="M28.1616 38.3405L28.092 34.9977L25.6182 30.479L25.751 34.3636L28.1616 38.3405Z" fill="#0399F2"/>
<path d="M33.2725 41.7819L36.1062 40.5506L42.1533 40.6799L38.9653 41.9111L33.2725 41.7819Z" fill="url(#paint2_linear_22_46634)"/>
<path d="M28.1614 38.341L28.0918 34.9983L36.4605 40.6311L33.2724 41.7823L28.1614 38.341Z" fill="#057FDD"/>
<path d="M28.7815 40.7109L28.1616 38.3408L33.2721 41.782L30.5145 41.8805L28.7815 40.7109Z" fill="url(#paint3_linear_22_46634)"/>
<path d="M38.965 41.9113L33.2721 41.782L30.5142 41.8805C30.5142 41.8805 33.6769 42.4962 33.7781 42.4962C33.8793 42.4962 38.965 41.9113 38.965 41.9113Z" fill="#0E82C6"/>
<path d="M28.7815 40.7109L28.1616 38.3408L25.7515 34.3639L27.2443 38.2915L28.7815 40.7109Z" fill="#097ADB"/>
<path d="M37.3081 36.3026L31.982 32.8613L29.7744 28.5521L34.5565 29.0876L39.8763 32.5351L42.0396 36.2164L37.3081 36.3026Z" fill="#BBECFF"/>
<path d="M37.3081 36.3026L31.982 32.8613L29.7744 28.5521L32.311 32.4981L37.4663 35.884L42.0396 36.2164L37.3081 36.3026Z" fill="white"/>
<path d="M38.0546 34.7515L33.3612 31.5934L31.5142 28.9647L34.816 29.2602L39.6739 32.3936L41.1604 35.1208L38.0546 34.7515Z" fill="#70CEF2"/>
<path d="M39.6736 32.3939L38.5856 31.686C37.5039 32.3816 35.777 32.1169 34.6447 31.7968C34.1368 31.6563 33.6383 31.4857 33.1519 31.2858L33.3606 31.5813L38.0542 34.7394L41.1601 35.1087L39.6736 32.3939Z" fill="#62C3E8"/>
<path d="M29.7742 28.5521L25.6245 30.5036L28.0915 34.9976L31.9819 32.8614L29.7742 28.5521Z" fill="#86D4FC"/>
<path d="M29.8248 28.6448C29.417 30.6846 28.752 32.6675 27.8447 34.5486L28.0914 34.9981L31.982 32.8618L29.8248 28.6448Z" fill="#AEE6FF"/>
<path d="M37.3081 36.3029L36.4604 40.6307L42.1535 40.6799L42.0397 36.2167L37.3081 36.3029Z" fill="#2BA4E2"/>
<path d="M42.0521 36.6111V36.2294L37.3203 36.3156L36.4727 40.6249H36.9091C38.3522 38.9876 40.0963 37.6263 42.0521 36.6111Z" fill="#6DC6F7"/>
<path d="M31.982 32.8615L28.0918 34.9977L36.4604 40.6306L37.308 36.3028L31.982 32.8615Z" fill="#32ABFC"/>
<path d="M37.2509 36.5676C35.9163 38.9439 30.3689 36.389 28.7054 35.1516C28.6432 35.1057 28.5951 35.0442 28.5662 34.9737C28.5372 34.9032 28.5285 34.8264 28.5409 34.7515L28.0918 34.9977L36.4603 40.6307L37.2509 36.5676Z" fill="#1E97F4"/>
<path opacity="0.51" d="M36.4856 40.6673C35.8894 40.4271 35.3347 40.0991 34.841 39.6946C31.3431 38.1494 33.6455 32.7875 36.4034 30.2819L34.9422 29.34L34.5564 29.0876L29.7744 28.5521L25.6313 30.4974L25.7642 34.3819L27.257 38.3095L28.794 40.7289L30.5272 41.8985C30.5272 41.8985 33.6898 42.5141 33.791 42.5141C33.8922 42.5141 38.9778 41.8985 38.9778 41.8985L39.4269 41.7262C38.3959 41.4122 37.4154 41.049 36.4856 40.6673Z" fill="#024784"/>
<path d="M6.26831 59.019V56.4027L7.46384 55.8856L12.9607 41.4679L12.0562 40.7661L12.6065 38.6299L13.5996 37.9958L14.074 30.0667L12.7014 30.1836L12.2523 27.8381L13.0556 26.5515L15.491 0.443274L16.2311 3.05176e-05L20.2478 9.86219L20.9562 9.99146L21.5951 11.4074L21.4054 12.7002L27.1806 26.8901L31.6401 27.8381L31.969 30.5776L31.5958 32.0797L33.076 44.4905L34.7649 45.18V46.8606L37.9277 53.0168L39.2561 53.2261V55.6085L24.2139 64.8489L6.26831 59.019Z" fill="#0578D6"/>
<path d="M32.2666 37.6634C32.3339 38.8025 32.4671 39.937 32.6655 41.0616L32.2666 37.6634Z" fill="#0478BC"/>
<path d="M19.0839 11.6658C20.0011 15.3595 20.3806 19.1332 21.6142 22.7776C22.8822 26.3124 24.3327 29.7827 25.9599 33.1754C27.0732 35.6871 27.0922 38.2049 26.9657 40.9013C26.8835 42.6989 26.6621 44.7058 27.1681 46.4419C27.8008 48.3058 28.5572 50.1278 29.4327 51.8962C30.5028 54.271 30.9003 56.8812 30.584 59.4559C30.5207 59.9977 30.4385 60.5394 30.3499 61.0812L38.2128 56.2548C37.2097 55.1376 36.3922 53.8747 35.79 52.5118C35.0183 50.5973 34.7906 48.4919 33.3736 46.8851C32.7069 46.1814 32.1389 45.3948 31.6847 44.5458C30.4828 42.1633 30.312 38.8452 30.1538 36.2288C30.0147 34.0495 29.9894 31.8703 29.983 29.6848C29.7687 29.6885 29.5584 29.6286 29.3798 29.5132C29.2013 29.3977 29.0631 29.2321 28.9836 29.0384C28.6546 28.2566 26.5672 28.1827 25.903 27.3824C25.1167 26.4134 24.4776 25.3395 24.0053 24.1935C22.6642 21.0108 21.9621 17.6865 20.8993 14.4176C19.9062 11.3826 17.5973 4.20454 16.1741 1.08337C16.0981 3.22571 18.5968 9.71429 19.0839 11.6658Z" fill="#0465BF"/>
<g opacity="0.64">
<path opacity="0.64" d="M20.2417 52.2714C20.9023 48.719 21.3711 45.1353 21.646 41.5351C19.8207 42.0714 17.938 42.4019 16.0352 42.5201C15.5427 44.4096 14.9084 46.2614 14.1375 48.0606C13.1127 50.5231 11.9172 52.8501 10.7153 55.2017C14.0426 54.7754 17.2671 53.7836 20.2417 52.2714Z" fill="#1396E2"/>
<path opacity="0.64" d="M20.8613 34.8807C20.0643 32.5044 19.2041 30.1466 18.5842 27.721C17.8716 28.6556 17.0112 29.4743 16.0352 30.1466C16.2882 32.3751 16.7056 34.6037 16.7562 36.8384C18.2601 36.4991 19.6642 35.8294 20.8613 34.8807Z" fill="#1396E2"/>
<path opacity="0.64" d="M17.3005 17.9883C18.0024 15.9338 18.2186 13.7516 17.9332 11.6044C17.9332 11.4136 17.0412 5.48516 16.0353 6.39012C16.0009 6.42253 15.96 6.44768 15.9151 6.46399C15.6305 10.4409 15.1686 14.4116 14.884 18.3762C14.7511 20.1676 14.5677 21.9468 14.3652 23.7197C15.5784 21.9319 16.5641 20.0074 17.3005 17.9883Z" fill="#1396E2"/>
</g>
<path d="M31.9688 30.5774L31.6398 27.8379L30.3178 27.5547C29.7305 29.5251 28.7234 31.3531 27.3622 32.9197C26.001 34.4863 24.3162 35.7564 22.4173 36.6474C19.6048 37.9789 16.4597 38.5001 13.3529 38.1495L12.6065 38.6297L12.0562 40.7659L12.9544 41.4615C16.4271 42.3972 20.798 40.9321 23.6191 39.2514C26.921 37.2815 29.1033 34.9052 31.6082 32.1534V32.0795L31.9688 30.5774Z" fill="url(#paint4_linear_22_46634)"/>
<path d="M31.9688 30.5774L31.6398 27.8379H31.5703C31.5703 30.8667 29.3374 34.0556 27.0475 35.8409C23.9607 38.248 18.1476 42.3049 13.9475 40.2056C13.794 40.1201 13.6668 39.9963 13.5789 39.847C13.4911 39.6976 13.4458 39.5281 13.4478 39.3561C13.4373 39.1443 13.4731 38.9328 13.5527 38.7354C13.6323 38.5381 13.7539 38.3594 13.9095 38.211C13.7261 38.211 13.5363 38.211 13.3529 38.1679L12.6065 38.6481L12.0562 40.7843L12.9544 41.4799C16.4271 42.4157 20.798 40.9505 23.6191 39.2699C26.921 37.2999 29.1033 34.9236 31.6082 32.1718V32.098L31.9688 30.5774Z" fill="#085BA0"/>
<path opacity="0.74" d="M19.5265 38.9682C24.6439 38.6235 26.4846 34.0125 30.4823 31.8579C30.6582 31.7486 30.8668 31.7002 31.0745 31.7203C31.2821 31.7404 31.4768 31.8279 31.6272 31.9687L31.9688 30.5774L31.6398 27.8379L30.3178 27.5547C29.7305 29.5251 28.7234 31.3531 27.3622 32.9197C26.001 34.4862 24.3162 35.7564 22.4173 36.6473C19.6048 37.9789 16.4597 38.5001 13.3529 38.1494L12.6065 38.6296L12.0562 40.7658L12.5495 41.1475C13.5932 38.6296 17.2494 39.1221 19.5265 38.9682Z" fill="#024784"/>
<path d="M26.9403 34.0497C28.8262 32.227 30.4115 30.1318 31.6401 27.838L27.2123 26.89C27.2123 26.89 25.0616 36.469 14.4095 37.9712C14.1565 37.9712 13.8972 37.9712 13.6315 37.9712L12.7017 38.5868C15.2747 38.986 17.9084 38.7827 20.3846 37.9937C22.8608 37.2046 25.1081 35.8526 26.9403 34.0497Z" fill="#1396E2"/>
<path d="M37.9275 53.0105C36.1753 54.4326 34.4104 55.7993 32.032 56.5011C30.5392 56.9443 28.0596 57.4861 26.0418 57.1167C24.1441 56.7658 24.473 54.7835 25.5483 53.6323C28.1482 50.8374 31.8739 49.323 34.7647 46.8605V45.1983L33.0758 44.5089C32.6464 45.135 32.1548 45.7185 31.6082 46.2511C28.5724 49.3921 24.8528 51.8322 20.722 53.3922C18.0589 54.3587 14.5862 55.947 11.3791 56.2549C10.2721 56.5442 9.01336 56.6181 8.17206 56.1133C7.91754 56.0701 7.66767 56.0042 7.42564 55.9163L6.26807 56.4211V59.0374L24.2073 64.8673L39.2558 55.6331V53.2322L37.9275 53.0105Z" fill="#1396E2"/>
<path opacity="0.74" d="M16.5983 58.0648C19.0177 58.6783 21.5401 58.8061 24.0118 58.4403C26.2009 58.2021 28.3486 57.6868 30.4005 56.9074C28.9749 57.2477 27.4954 57.3187 26.0423 57.1167C24.1446 56.7658 24.4736 54.7835 25.5489 53.6323C28.1487 50.8374 31.8744 49.323 34.7651 46.8605V45.1983L33.0762 44.5089C32.6468 45.135 32.1553 45.7185 31.6087 46.251C28.5729 49.3921 24.8533 51.8322 20.7226 53.3922C18.9577 54.0386 16.8261 54.9436 14.6564 55.5777C14.2516 56.5626 14.5362 57.4676 16.5983 58.0648Z" fill="#024784"/>
<path d="M39.1103 53.4231C34.2966 58.5388 26.7755 61.1306 19.6719 60.5765C17.4706 60.4041 13.3147 59.8747 12.3975 57.4369C12.2376 57.0142 12.1834 56.5605 12.2394 56.1133C11.9547 56.1564 11.6638 56.2057 11.3791 56.2364C10.2721 56.5258 9.01336 56.5996 8.17206 56.0948C7.91754 56.0517 7.66767 55.9858 7.42564 55.8978L6.26807 56.4026V59.019L24.2073 64.8489L39.2558 55.6147V53.2322C39.2148 53.301 39.166 53.365 39.1103 53.4231Z" fill="#0465BF"/>
<path opacity="0.74" d="M16.5154 56.9693C19.7115 56.1209 22.8037 54.9381 25.7381 53.4418C28.3316 50.7701 31.9561 49.2618 34.7646 46.8424V45.1803L33.0757 44.4908C32.6463 45.1169 32.1548 45.7004 31.6082 46.233C28.5724 49.3741 24.8527 51.8141 20.7219 53.3741C18.0589 54.3406 14.5862 55.9289 11.3791 56.2367C10.2721 56.526 9.01335 56.5999 8.17206 56.0951C7.91754 56.052 7.66767 55.986 7.42564 55.8981L6.26807 56.4029V59.0193L7.14732 59.3086C7.52685 57.0924 14.7696 57.3879 16.5154 56.9693Z" fill="#024784"/>
<path d="M33.0759 44.4908C31.9908 45.7751 30.7334 46.9118 29.3375 47.8705C26.982 49.6999 24.4307 51.2768 21.7279 52.5738C19.112 53.8453 16.3521 54.8143 13.5046 55.461C11.7208 55.8366 9.26651 56.5692 7.46373 55.8981L6.30615 56.4029C12.094 58.8654 22.3414 53.8543 24.1759 52.8324C27.6233 50.9055 32.2536 48.0183 34.7712 45.1495L33.0759 44.4908Z" fill="#1396E2"/>
<path d="M20.9565 9.99185C21.0088 13.9022 20.4151 17.7953 19.1981 21.5223C17.5598 26.558 14.0809 27.6784 12.2402 27.8385L12.6893 30.1901C12.6893 30.1901 17.9204 30.6149 20.1532 23.9848C21.4023 19.9101 21.8865 15.6496 21.5827 11.4078L20.9565 9.99185Z" fill="url(#paint5_linear_22_46634)"/>
<path d="M21.5953 11.4078L20.9627 9.99185C21.0084 13.3161 20.5826 16.6306 19.6975 19.8417C19.9331 22.2492 19.3604 24.6662 18.0655 26.7304C16.9648 28.3925 13.6373 30.9781 12.5746 27.9616C12.5746 27.9062 12.5746 27.8508 12.5366 27.8016L12.2456 27.8385L12.6948 30.1901C12.6948 30.1901 17.9263 30.6149 20.1593 23.9848C21.4107 19.9105 21.8971 15.65 21.5953 11.4078Z" fill="#085BA0"/>
<path opacity="0.74" d="M13.714 29.5125C14.0161 28.7128 14.6169 28.0533 15.3966 27.6657C16.7407 26.9339 17.8774 25.889 18.7047 24.6246C19.2971 23.7942 19.9526 23.0081 20.6655 22.2729C21.5389 18.7136 21.8524 15.0459 21.5953 11.3951L20.9628 9.97922C21.0144 13.894 20.4186 17.7913 19.1981 21.5219C17.5598 26.5576 14.0809 27.678 12.2402 27.838L12.6893 30.1897C13.0238 30.2038 13.3588 30.1831 13.6887 30.1281C13.6177 29.927 13.6267 29.7074 13.714 29.5125Z" fill="#024784"/>
<path d="M20.248 9.86246C20.248 9.86246 20.0835 18.6227 17.4459 22.9935C15.9342 25.5052 14.6059 26.4163 13.0562 26.5518L12.2402 27.8384C12.2402 27.8384 15.7507 28.5217 18.3125 23.6953C20.7224 19.1582 21.0386 13.9132 20.9438 9.99173L20.248 9.86246Z" fill="#1396E2"/>
<path d="M25.6245 28.3125L25.0046 25.8317L22.3857 22.8706L23.1512 25.7455L25.6245 28.3125Z" fill="#0399F2"/>
<path d="M30.0273 30.0481L31.925 28.6691L36.4603 27.7826L34.2907 29.2232L30.0273 30.0481Z" fill="url(#paint6_linear_22_46634)"/>
<path d="M25.6243 28.3122L25.0044 25.8313L32.2032 28.6692L30.0271 30.0482L25.6243 28.3122Z" fill="#057FDD"/>
<path d="M26.4974 29.9806L25.6245 28.3122L30.0271 30.0483L27.984 30.5716L26.4974 29.9806Z" fill="url(#paint7_linear_22_46634)"/>
<path d="M34.2907 29.2232L30.0274 30.0481L27.9844 30.5652C27.9844 30.5652 30.4512 30.5159 30.5145 30.4975C30.5778 30.479 34.2907 29.2232 34.2907 29.2232Z" fill="#0E82C6"/>
<path d="M26.4973 29.9806L25.6244 28.3123L23.1514 25.7452L24.935 28.4293L26.4973 29.9806Z" fill="#097ADB"/>
<path d="M32.089 25.3084L27.5346 23.6093L25.1499 20.7529L28.8061 20.3773L33.3668 22.0826L35.606 24.4773L32.089 25.3084Z" fill="#BBECFF"/>
<path d="M32.089 25.308L27.5346 23.609L25.1499 20.7526L27.7181 23.2827L32.1396 24.9695L35.606 24.477L32.089 25.308Z" fill="white"/>
<path d="M32.3865 24.0336L28.3443 22.4392L26.5161 20.7832L29.0275 20.4631L33.1898 22.0144L34.7586 23.7997L32.3865 24.0336Z" fill="#70CEF2"/>
<path d="M33.19 22.0146L32.2538 21.6699C31.5706 22.3655 30.2422 22.4455 29.3376 22.3901C28.9364 22.3723 28.5369 22.327 28.1421 22.2547L28.3445 22.4394L32.3866 24.0339L34.7588 23.7999L33.19 22.0146Z" fill="#62C3E8"/>
<path d="M25.1504 20.7526L22.3926 22.8826L25.0049 25.8314L27.5351 23.609L25.1504 20.7526Z" fill="#86D4FC"/>
<path d="M25.2073 20.8203C25.251 22.4049 25.0938 23.9888 24.7393 25.536L25.0049 25.8315L27.535 23.6091L25.2073 20.8203Z" fill="#AEE6FF"/>
<path d="M32.0894 25.3078L32.2032 28.6691L36.4604 27.7826L35.6065 24.4767L32.0894 25.3078Z" fill="#2BA4E2"/>
<path d="M35.6824 24.7599L35.6065 24.4767L32.0957 25.3078L32.2032 28.6691L32.5575 28.6013C33.3422 27.1414 34.4023 25.8382 35.6824 24.7599Z" fill="#6DC6F7"/>
<path d="M27.5347 23.6091L25.0044 25.8315L32.2032 28.6694L32.0894 25.3082L27.5347 23.6091Z" fill="#32ABFC"/>
<path d="M32.102 25.5294C31.5137 27.5179 26.9401 26.5144 25.4852 25.8619C25.4305 25.8371 25.3838 25.7981 25.3504 25.7492C25.3169 25.7004 25.2979 25.6435 25.2954 25.5848L25.0044 25.8434L32.2032 28.6814L32.102 25.5294Z" fill="#1E97F4"/>
<path d="M24.7203 32.7998L23.8095 31.8272L21.874 31.1131L22.9493 32.2335L24.7203 32.7998Z" fill="#0399F2"/>
<path d="M27.1553 32.5352L27.6677 31.4578L29.496 29.968L28.8823 31.1377L27.1553 32.5352Z" fill="url(#paint8_linear_22_46634)"/>
<path d="M24.72 32.8L23.8091 31.8273L27.7942 31.3903L27.1553 32.5353L24.72 32.8Z" fill="#057FDD"/>
<path d="M25.5362 33.3544L24.7202 32.8003L27.1555 32.5356L26.3649 33.262L25.5362 33.3544Z" fill="url(#paint9_linear_22_46634)"/>
<path d="M28.8822 31.1378L27.1554 32.5352L26.3647 33.2616C26.3647 33.2616 27.4653 32.646 27.497 32.646C27.5286 32.646 28.8822 31.1378 28.8822 31.1378Z" fill="#0E82C6"/>
<path d="M25.5362 33.3541L24.7203 32.8001L22.9492 32.2338L24.4356 33.0217L25.5362 33.3541Z" fill="#097ADB"/>
<path d="M26.8899 29.8941L24.3976 30.2142L22.5947 29.4878L24.1572 28.4412L26.6496 28.1211L28.2753 28.669L26.8899 29.8941Z" fill="#BBECFF"/>
<path d="M26.8899 29.8946L24.3976 30.2148L22.5947 29.4883L24.3976 30.0239L26.8267 29.7284L28.2753 28.6695L26.8899 29.8946Z" fill="white"/>
<path d="M26.6997 29.2419L24.4668 29.4882L23.2207 29.1742L24.2771 28.4293L26.5542 28.1338L27.7244 28.5709L26.6997 29.2419Z" fill="#70CEF2"/>
<path d="M26.5544 28.1338L26.0421 28.2015C25.9297 28.4378 25.77 28.6499 25.5724 28.8254C25.3747 29.0009 25.1431 29.1362 24.891 29.2235C24.7041 29.3089 24.5118 29.3829 24.3154 29.4451L24.4546 29.482L26.6873 29.2358L27.7119 28.5647L26.5544 28.1338Z" fill="#62C3E8"/>
<path d="M22.5948 29.488L21.8799 31.1194L23.8094 31.8274L24.3978 30.2144L22.5948 29.488Z" fill="#86D4FC"/>
<path d="M22.6323 29.5063C23.0529 30.2155 23.3822 30.9722 23.6129 31.7596L23.809 31.8273L24.3974 30.2143L22.6323 29.5063Z" fill="#AEE6FF"/>
<path d="M26.8896 29.8946L27.7943 31.3906L29.4961 29.9685L28.2751 28.6695L26.8896 29.8946Z" fill="#2BA4E2"/>
<path d="M28.3824 28.7803L28.2749 28.6695L26.8896 29.9007L27.7941 31.3967L27.9333 31.2798C27.9239 30.4268 28.0761 29.5795 28.3824 28.7803Z" fill="#6DC6F7"/>
<path d="M24.3974 30.2147L23.8091 31.8276L27.7942 31.3905L26.8896 29.8946L24.3974 30.2147Z" fill="#32ABFC"/>
<path d="M26.9466 29.9867C27.1869 31.027 24.8591 31.6673 24.0305 31.7227C24.0002 31.7237 23.9701 31.7168 23.9434 31.7027C23.9167 31.6886 23.8944 31.6679 23.8787 31.6426L23.8091 31.8273L27.7942 31.3903L26.9466 29.9867Z" fill="#1E97F4"/>
<path opacity="0.51" d="M22.5188 29.6601L21.8862 31.113L22.9615 32.2334L24.448 33.0214L25.5486 33.3539L26.3773 33.2615L27.2059 32.7936C26.2128 31.0699 24.8276 29.6663 22.5188 29.6601Z" fill="#024784"/>
<path d="M19.8558 10.41L19.8242 9.48654L19.1284 8.23676L19.179 9.32031L19.8558 10.41Z" fill="#0399F2"/>
<path d="M21.2856 11.3521L22.0699 11.0012L23.746 11.0197L22.8669 11.3706L21.2856 11.3521Z" fill="url(#paint10_linear_22_46634)"/>
<path d="M19.8558 10.4103L19.8242 9.48688L22.1649 11.0259L21.2856 11.3522L19.8558 10.4103Z" fill="#057FDD"/>
<path d="M20.0327 11.0689L19.8555 10.4102L21.2856 11.3521L20.5199 11.389L20.0327 11.0689Z" fill="url(#paint11_linear_22_46634)"/>
<path d="M22.8667 11.3705H21.2854L20.52 11.4074L21.4309 11.5675L22.8667 11.3705Z" fill="#0E82C6"/>
<path d="M20.0327 11.0685L19.8556 10.4098L19.1787 9.32013L19.6025 10.4036L20.0327 11.0685Z" fill="#097ADB"/>
<path d="M22.3859 9.81935L20.8996 8.88364L20.2734 7.68936L21.6016 7.8248L23.0879 8.76667L23.7014 9.78241L22.3859 9.81935Z" fill="#BBECFF"/>
<path d="M22.3859 9.81935L20.8996 8.88364L20.2734 7.68936L20.9881 8.77898L22.4302 9.70238L23.7014 9.78241L22.3859 9.81935Z" fill="white"/>
<path d="M22.5884 9.3879L21.2789 8.52613L20.7539 7.79977L21.6712 7.87365L23.0312 8.72926L23.455 9.48023L22.5884 9.3879Z" fill="#70CEF2"/>
<path d="M23.0315 8.72911L22.7279 8.53824C22.5574 8.61541 22.3729 8.65895 22.185 8.66634C21.9972 8.67374 21.8097 8.64485 21.6334 8.58134C21.5068 8.5444 21.3613 8.5013 21.2158 8.44589L21.2791 8.52593L22.5887 9.38788L23.4554 9.48023L23.0315 8.72911Z" fill="#62C3E8"/>
<path d="M20.2736 7.68936L19.1284 8.24342L19.8244 9.48697L20.8999 8.88367L20.2736 7.68936Z" fill="#86D4FC"/>
<path d="M20.2857 7.71973C20.1788 8.28681 20.0003 8.83888 19.7544 9.3634L19.824 9.48652L20.8992 8.87091L20.2857 7.71973Z" fill="#AEE6FF"/>
<path d="M22.3859 9.81901L22.1646 11.0255L23.7459 11.0194L23.7016 9.78207L22.3859 9.81901Z" fill="#2BA4E2"/>
<path d="M23.7082 9.88672V9.78207L22.3923 9.81901L22.1709 11.0501H22.3038C22.6919 10.5793 23.1685 10.1844 23.7082 9.88672Z" fill="#6DC6F7"/>
<path d="M20.8996 8.88318L19.8242 9.48651L22.1648 11.0256L22.3862 9.81896L20.8996 8.88318Z" fill="#32ABFC"/>
<path d="M22.3605 9.89285C22 10.5577 20.463 9.89285 19.9823 9.5235C19.9654 9.51202 19.9522 9.49606 19.9444 9.4775C19.9365 9.45895 19.9343 9.43859 19.938 9.41885L19.8115 9.48657L22.1518 11.0255L22.3605 9.89285Z" fill="#1E97F4"/>
<path d="M20.3051 13.3216L19.7104 13.0386L18.6982 13.0509L19.3941 13.3709L20.3051 13.3216Z" fill="#0399F2"/>
<path d="M21.3677 12.7743L21.3993 12.1956L21.9559 11.1983L21.8926 11.8385L21.3677 12.7743Z" fill="url(#paint12_linear_22_46634)"/>
<path d="M20.305 13.3216L19.7104 13.0385L21.4435 12.1396L21.3676 12.7737L20.305 13.3216Z" fill="#057FDD"/>
<path d="M20.7796 13.4266L20.3052 13.322L21.3679 12.774L21.1402 13.2419L20.7796 13.4266Z" fill="url(#paint13_linear_22_46634)"/>
<path d="M21.8925 11.8387L21.3677 12.7745L21.1401 13.2424L21.5385 12.756L21.8925 11.8387Z" fill="#0E82C6"/>
<path d="M20.7792 13.4264L20.3048 13.3217L19.394 13.371L20.2163 13.4695L20.7792 13.4264Z" fill="#097ADB"/>
<path d="M20.7601 11.6169L19.6786 12.2017L18.7236 12.1832L19.2422 11.4384L20.3237 10.8535L21.1585 10.8228L20.7601 11.6169Z" fill="#BBECFF"/>
<path d="M20.7601 11.6169L19.6786 12.2017L18.7236 12.1832L19.647 12.1155L20.6968 11.5553L21.1585 10.8228L20.7601 11.6169Z" fill="white"/>
<path d="M20.5519 11.3581L19.5778 11.8567L18.9517 11.9306L19.2995 11.4074L20.2799 10.8779L20.8934 10.8718L20.5519 11.3581Z" fill="#70CEF2"/>
<path d="M20.2797 10.8778L20.0583 10.9948C20.0524 11.1224 20.0202 11.2475 19.9637 11.3628C19.9072 11.478 19.8274 11.5811 19.7292 11.6658C19.666 11.7274 19.5901 11.8013 19.5078 11.869H19.5774L20.5517 11.3703L20.8934 10.884L20.2797 10.8778Z" fill="#62C3E8"/>
<path d="M18.7236 12.183L18.7046 13.0509L19.7103 13.0386L19.6786 12.2014L18.7236 12.183Z" fill="#86D4FC"/>
<path d="M18.7485 12.189C19.0724 12.4342 19.3616 12.7198 19.6089 13.0385H19.7101L19.6785 12.2013L18.7485 12.189Z" fill="#AEE6FF"/>
<path d="M20.7607 11.6168L21.4438 12.1401L21.9561 11.1983L21.1592 10.8228L20.7607 11.6168Z" fill="#2BA4E2"/>
<path d="M21.2284 10.8531H21.1588L20.7539 11.6473L21.4435 12.1705L21.4878 12.0967C21.3203 11.7021 21.2323 11.28 21.2284 10.8531Z" fill="#6DC6F7"/>
<path d="M19.6787 12.2014L19.7103 13.0386L21.4437 12.1398L20.7605 11.6166L19.6787 12.2014Z" fill="#32ABFC"/>
<path d="M20.7983 11.6533C21.1019 12.0842 20.1658 12.7798 19.7927 12.946C19.7812 12.9555 19.7666 12.9607 19.7516 12.9607C19.7365 12.9607 19.7219 12.9555 19.7104 12.946V13.0445L21.4435 12.1458L20.7983 11.6533Z" fill="#1E97F4"/>
<path d="M19.2992 16.886L19.1284 16.3812L18.5273 15.8087L18.7425 16.3935L19.2992 16.886Z" fill="#0399F2"/>
<path d="M20.248 17.176L20.6149 16.8559L21.5446 16.5912L21.1208 16.9298L20.248 17.176Z" fill="url(#paint14_linear_22_46634)"/>
<path d="M19.2992 16.8866L19.1284 16.3817L20.6717 16.8497L20.2479 17.176L19.2992 16.8866Z" fill="#057FDD"/>
<path d="M19.5143 17.2185L19.2993 16.8861L20.2479 17.1754L19.8305 17.317L19.5143 17.2185Z" fill="url(#paint15_linear_22_46634)"/>
<path d="M21.0957 16.9108L20.2227 17.1509L19.8052 17.2986L20.3302 17.237L21.0957 16.9108Z" fill="#0E82C6"/>
<path d="M19.5141 17.2187L19.2991 16.8863L18.7427 16.3938L19.16 16.9232L19.5141 17.2187Z" fill="#097ADB"/>
<path d="M20.5896 16.1538L19.6154 15.8768L19.0649 15.3228L19.8178 15.1813L20.7984 15.4583L21.3045 15.9199L20.5896 16.1538Z" fill="#BBECFF"/>
<path d="M20.5896 16.1534L19.6154 15.8764L19.0649 15.3224L19.647 15.8087L20.596 16.0795L21.3045 15.9195L20.5896 16.1534Z" fill="white"/>
<path d="M20.6276 15.8833L19.7609 15.6186L19.3496 15.3046L19.8684 15.2L20.7605 15.4524L21.1211 15.7971L20.6276 15.8833Z" fill="#70CEF2"/>
<path d="M20.7603 15.4458L20.5578 15.3904C20.4777 15.4612 20.3837 15.5157 20.2816 15.5506C20.1794 15.5854 20.0711 15.6001 19.9631 15.5935H19.7163L19.7606 15.6243L20.6274 15.8889L21.1209 15.8028L20.7603 15.4458Z" fill="#62C3E8"/>
<path d="M19.0653 15.3224L18.5337 15.8149L19.1286 16.3812L19.6159 15.8764L19.0653 15.3224Z" fill="#86D4FC"/>
<path d="M19.0776 15.3351C19.1188 15.6642 19.1188 15.9971 19.0776 16.3262L19.1409 16.3816L19.6283 15.8768L19.0776 15.3351Z" fill="#AEE6FF"/>
<path d="M20.5894 16.1541L20.6716 16.8498L21.5445 16.5912L21.3041 15.9201L20.5894 16.1541Z" fill="#2BA4E2"/>
<path d="M21.3296 15.9755V15.9201L20.6152 16.1541L20.6974 16.8498H20.7733C20.8985 16.5259 21.0875 16.2289 21.3296 15.9755Z" fill="#6DC6F7"/>
<path d="M19.6154 15.8767L19.1284 16.3816L20.6717 16.8495L20.5895 16.1538L19.6154 15.8767Z" fill="#32ABFC"/>
<path d="M20.5958 16.1973C20.5073 16.6221 19.5395 16.4866 19.2296 16.3758C19.2173 16.3743 19.206 16.3684 19.1979 16.3594C19.1897 16.3503 19.1852 16.3386 19.1853 16.3266L19.1284 16.382L20.6717 16.8498L20.5958 16.1973Z" fill="#1E97F4"/>
<path d="M13.6312 37.916L13.0872 37.3619L11.9487 36.9802L12.5939 37.6143L13.6312 37.916Z" fill="#0399F2"/>
<path d="M15.0483 37.7189L15.3266 37.0787L16.3639 36.1861L16.0223 36.8755L15.0483 37.7189Z" fill="url(#paint16_linear_22_46634)"/>
<path d="M13.6314 37.9159L13.0874 37.3618L15.3961 37.0416L15.0482 37.7189L13.6314 37.9159Z" fill="#057FDD"/>
<path d="M14.1185 38.2177L13.6313 37.9161L15.0485 37.7191L14.5993 38.15L14.1185 38.2177Z" fill="url(#paint17_linear_22_46634)"/>
<path d="M16.035 36.8758L15.0609 37.7192L14.6118 38.1501L15.2443 37.7623L16.035 36.8758Z" fill="#0E82C6"/>
<path d="M14.1185 38.2177L13.6315 37.916L12.5942 37.6143L13.4734 38.0453L14.1185 38.2177Z" fill="#097ADB"/>
<path d="M14.8458 36.186L13.3972 36.4138L12.3408 36.0198L13.2264 35.3857L14.675 35.1641L15.6301 35.4534L14.8458 36.186Z" fill="#BBECFF"/>
<path d="M14.8458 36.1857L13.3972 36.4134L12.3408 36.0195L13.3972 36.3026L14.8078 36.0872L15.6301 35.4532L14.8458 36.1857Z" fill="white"/>
<path d="M14.7257 35.8103L13.4291 35.9889L12.6953 35.8288L13.2962 35.3794L14.6182 35.1701L15.3013 35.404L14.7257 35.8103Z" fill="#70CEF2"/>
<path d="M14.6181 35.1701L14.3208 35.2193C14.2512 35.4964 13.9223 35.7118 13.6883 35.835C13.5934 35.8781 13.4796 35.9335 13.3594 35.9766H13.4416L14.7382 35.798L15.3202 35.3917L14.6181 35.1701Z" fill="#62C3E8"/>
<path d="M12.341 36.0196L11.9487 36.9798L13.0874 37.3615L13.3974 36.4136L12.341 36.0196Z" fill="#86D4FC"/>
<path d="M12.3599 36.032C12.6258 36.4353 12.8384 36.8696 12.9926 37.3247L13.1065 37.3616L13.4166 36.4136L12.3599 36.032Z" fill="#AEE6FF"/>
<path d="M14.8457 36.1858L15.3961 37.0414L16.364 36.1858L15.6301 35.4532L14.8457 36.1858Z" fill="#2BA4E2"/>
<path d="M15.6932 35.5148L15.6299 35.4532L14.8457 36.1858L15.3959 37.0414L15.4782 36.9737C15.4563 36.4786 15.5292 35.9839 15.6932 35.5148Z" fill="#6DC6F7"/>
<path d="M13.3973 36.4138L13.0874 37.3619L15.3961 37.0418L14.8458 36.1861L13.3973 36.4138Z" fill="#32ABFC"/>
<path d="M14.8774 36.2414C15.0356 36.8571 13.6946 37.2511 13.2139 37.2942C13.1963 37.2973 13.1782 37.2948 13.1622 37.287C13.1462 37.2793 13.1333 37.2666 13.1254 37.2511L13.0874 37.3619L15.3961 37.0417L14.8774 36.2414Z" fill="#1E97F4"/>
<path d="M32.0137 44.5399L31.6911 43.2594L30.3438 41.7327L30.7359 43.2163L32.0137 44.5399Z" fill="#0399F2"/>
<path d="M34.2842 45.4388L35.2646 44.7246L37.605 44.269L36.4854 45.0078L34.2842 45.4388Z" fill="url(#paint18_linear_22_46634)"/>
<path d="M32.0135 44.5401L31.6909 43.2597L35.4102 44.7248L34.2843 45.4389L32.0135 44.5401Z" fill="#057FDD"/>
<path d="M32.4624 45.4021L32.0132 44.5402L34.2848 45.439L33.2344 45.7038L32.4624 45.4021Z" fill="url(#paint19_linear_22_46634)"/>
<path d="M36.4856 45.0078L34.2841 45.4326L33.2339 45.7035C33.2339 45.7035 34.4992 45.7035 34.5434 45.6666C34.5877 45.6296 36.4856 45.0078 36.4856 45.0078Z" fill="#0E82C6"/>
<path d="M32.4628 45.4017L32.0137 44.5399L30.7358 43.2163L31.6594 44.6014L32.4628 45.4017Z" fill="#097ADB"/>
<path d="M35.3538 42.9886L33.0006 42.1144L31.7671 40.637L33.6585 40.4462L36.0054 41.3265L37.1693 42.5577L35.3538 42.9886Z" fill="#BBECFF"/>
<path d="M35.3538 42.9883L33.0006 42.1142L31.7671 40.6367L33.0955 41.9479L35.3791 42.816L37.1693 42.5574L35.3538 42.9883Z" fill="white"/>
<path d="M35.5051 42.33L33.418 41.5112L32.4756 40.6554L33.7721 40.4892L35.9162 41.2896L36.7321 42.213L35.5051 42.33Z" fill="#70CEF2"/>
<path d="M35.9165 41.2895L35.4358 41.111C35.2228 41.2673 34.9801 41.381 34.7217 41.4454C34.4633 41.5099 34.1944 41.5238 33.9304 41.4865C33.7181 41.4758 33.5067 41.4511 33.2979 41.4126L33.4054 41.5111L35.4927 42.3299L36.7198 42.2129L35.9165 41.2895Z" fill="#62C3E8"/>
<path d="M31.7669 40.6367L30.3438 41.7386L31.691 43.2592L33.0003 42.1141L31.7669 40.6367Z" fill="#86D4FC"/>
<path d="M31.7985 40.674C31.8243 41.5013 31.7436 42.3285 31.5581 43.1364L31.6909 43.2902L33.0003 42.1452L31.7985 40.674Z" fill="#AEE6FF"/>
<path d="M35.3535 42.9882L35.4104 44.7243L37.6051 44.2687L37.1687 42.5573L35.3535 42.9882Z" fill="#2BA4E2"/>
<path d="M37.2071 42.705L37.1692 42.5573L35.3535 42.9882L35.4105 44.7243L35.5939 44.6873C36.001 43.9351 36.548 43.263 37.2071 42.705Z" fill="#6DC6F7"/>
<path d="M33.0003 42.1143L31.6909 43.2593L35.4102 44.7245L35.3533 42.9885L33.0003 42.1143Z" fill="#32ABFC"/>
<path d="M35.3533 43.0993C35.0497 44.1273 32.6903 43.6041 31.9439 43.2655C31.915 43.2555 31.8898 43.2373 31.8717 43.2131C31.8536 43.1889 31.8435 43.1599 31.8427 43.1301L31.6909 43.2593L35.4102 44.7245L35.3533 43.0993Z" fill="#1E97F4"/>
<path opacity="0.51" d="M30.3628 41.8004L30.736 43.2164L31.6595 44.6139L32.4628 45.4142L33.2345 45.7158C33.2345 45.7158 34.4996 45.7158 34.5439 45.6789C34.5881 45.642 35.3725 45.4019 35.9418 45.211C34.1707 43.8813 32.4818 42.5638 30.3628 41.8004Z" fill="#024784"/>
<path d="M21.7854 36.5611L20.1912 36.124L17.6987 36.5981L19.5586 37.0844L21.7854 36.5611Z" fill="#0399F2"/>
<path d="M24.1384 34.7456L23.9487 33.2989L24.8593 30.5964L24.9985 32.2031L24.1384 34.7456Z" fill="#1574BC"/>
<path d="M21.7849 36.5619L20.1909 36.1248L24.0368 33.1514L24.138 34.7458L21.7849 36.5619Z" fill="#055FA3"/>
<path d="M22.9997 36.6169L21.7852 36.5615L24.1384 34.7455L23.7968 36.0013L22.9997 36.6169Z" fill="#0E6CAF"/>
<path d="M24.9988 32.2031L24.1388 34.764L23.7974 35.9952C23.7974 35.9952 24.5309 34.6593 24.5498 34.6101C24.5688 34.5608 24.9988 32.2031 24.9988 32.2031Z" fill="#0C6AAD"/>
<path d="M22.9996 36.6167L21.7849 36.5613L19.5581 37.0846L21.6331 36.9615L22.9996 36.6167Z" fill="#097ADB"/>
<path d="M22.1013 32.1663L19.7231 34.0747L17.3638 34.4625L18.2936 32.3879L20.6718 30.4795L22.7275 30.024L22.1013 32.1663Z" fill="#BBECFF"/>
<path d="M22.1013 32.1663L19.7231 34.0747L17.3638 34.4625L19.5966 33.8715L21.9242 32.0309L22.7275 30.024L22.1013 32.1663Z" fill="white"/>
<path d="M21.4686 31.612L19.3179 33.2741L17.8062 33.7358L18.4071 32.2953L20.583 30.5532L22.0821 30.2638L21.4686 31.612Z" fill="#70CEF2"/>
<path d="M20.5768 30.5531L20.096 30.9409C20.1759 31.5787 19.9965 32.2216 19.5961 32.7324C19.4568 32.9462 19.3047 33.1517 19.1406 33.3481L19.3114 33.2927L21.4688 31.6304L22.1015 30.2822L20.5768 30.5531Z" fill="#62C3E8"/>
<path d="M17.3638 34.4625L17.7116 36.5987L20.1911 36.1247L19.723 34.0746L17.3638 34.4625Z" fill="#86D4FC"/>
<path d="M17.4209 34.4502C18.3344 34.9178 19.1843 35.4948 19.9507 36.1678L20.2037 36.1247L19.7357 34.0746L17.4209 34.4502Z" fill="#AEE6FF"/>
<path d="M22.1011 32.1662L24.0365 33.1512L24.8588 30.5965L22.7273 30.024L22.1011 32.1662Z" fill="#2BA4E2"/>
<path d="M22.9113 30.0732L22.7278 30.024L22.0952 32.1662L24.0309 33.1512L24.1005 32.9419C23.5231 32.0665 23.1197 31.0935 22.9113 30.0732Z" fill="#6DC6F7"/>
<path d="M19.7227 34.0742L20.1907 36.1243L24.0367 33.1508L22.1011 32.1658L19.7227 34.0742Z" fill="#32ABFC"/>
<path d="M22.2214 32.2278C23.1639 33.1574 21.1715 35.3059 20.3239 35.8661C20.2915 35.8851 20.2543 35.8951 20.2164 35.8951C20.1785 35.8951 20.1414 35.8851 20.1089 35.8661L20.1658 36.1062L24.0114 33.1327L22.2214 32.2278Z" fill="#1E97F4"/>
<path d="M28.5849 49.2002L26.5861 48.6522L23.4614 49.2494L25.7954 49.8528L28.5849 49.2002Z" fill="#0399F2"/>
<path d="M31.5329 46.9224L31.2988 45.1125L32.4375 41.7267L32.6083 43.7397L31.5329 46.9224Z" fill="#1574BC"/>
<path d="M28.5852 49.2002L26.5864 48.6523L31.4062 44.9278L31.5327 46.9224L28.5852 49.2002Z" fill="#055FA3"/>
<path d="M30.103 49.2677L28.585 49.2L31.5324 46.9221L31.1023 48.4982L30.103 49.2677Z" fill="#0E6CAF"/>
<path d="M32.6078 43.7393L31.5326 46.9221L31.1025 48.4982C31.1025 48.4982 32.0259 46.8236 32.0449 46.7682C32.0639 46.7128 32.6078 43.7393 32.6078 43.7393Z" fill="#0C6AAD"/>
<path d="M30.1034 49.2676L28.5852 49.1999L25.7954 49.8525L28.3954 49.7048L30.1034 49.2676Z" fill="#097ADB"/>
<path d="M28.9837 43.6903L25.998 46.0788L23.0439 46.5651L24.2079 43.9673L27.1935 41.5787L29.7617 41.0062L28.9837 43.6903Z" fill="#BBECFF"/>
<path d="M28.9837 43.6903L25.998 46.0788L23.0439 46.5651L25.8399 45.8326L28.7623 43.524L29.7617 41.0062L28.9837 43.6903Z" fill="white"/>
<path d="M28.1934 42.9947L25.4861 45.0817L23.6011 45.6603L24.3538 43.8504L27.0738 41.6711L28.9588 41.3141L28.1934 42.9947Z" fill="#70CEF2"/>
<path d="M27.0732 41.665L26.4406 42.1575C26.6683 42.89 26.2066 43.8135 25.8081 44.3983C25.6345 44.6599 25.4443 44.9107 25.2388 45.1493L25.4538 45.0816L28.1612 42.9947L28.9265 41.3141L27.0732 41.665Z" fill="#62C3E8"/>
<path d="M23.0439 46.5655L23.4741 49.2495L26.5865 48.6524L25.9982 46.0792L23.0439 46.5655Z" fill="#86D4FC"/>
<path d="M23.1138 46.5532C24.2543 47.1434 25.3164 47.867 26.2765 48.7079L26.5928 48.6463L26.0045 46.0792L23.1138 46.5532Z" fill="#AEE6FF"/>
<path d="M28.9834 43.6903L31.4059 44.9277L32.4369 41.7265L29.7614 41.0062L28.9834 43.6903Z" fill="#2BA4E2"/>
<path d="M29.9959 41.0678L29.7619 41.0062L28.9775 43.6903L31.4064 44.9215L31.495 44.6568C30.7664 43.5636 30.2577 42.3457 29.9959 41.0678Z" fill="#6DC6F7"/>
<path d="M25.998 46.0786L26.5863 48.6519L31.4063 44.9274L28.9837 43.69L25.998 46.0786Z" fill="#32ABFC"/>
<path d="M29.1286 43.764C30.3115 44.9337 27.8129 47.6117 26.7818 48.3319C26.7412 48.3541 26.6955 48.3657 26.6489 48.3657C26.6024 48.3657 26.5567 48.3541 26.5161 48.3319L26.5857 48.6213L31.4058 44.9276L29.1286 43.764Z" fill="#1E97F4"/>
<path opacity="0.51" d="M23.1388 46.3497L23.0439 46.5652L23.4741 49.2431L25.8082 49.8587L28.408 49.7109L30.1159 49.2739L31.1153 48.5043C31.1153 48.5043 31.634 47.5686 31.8997 47.07C30.5141 47.7513 28.9613 48.0448 27.4144 47.9176C25.8675 47.7904 24.3873 47.2476 23.1388 46.3497Z" fill="#024784"/>
<path d="M7.85613 55.2579L5.16151 53.1895L0 52.1922L3.17534 54.55L7.85613 55.2579Z" fill="#0399F2"/>
<path d="M13.834 53.5895L14.65 50.6777L18.591 46.2083L17.5472 49.391L13.834 53.5895Z" fill="url(#paint20_linear_22_46634)"/>
<path d="M7.85632 55.2575L5.16162 53.189L14.941 50.4618L13.834 53.5891L7.85632 55.2575Z" fill="#057FDD"/>
<path d="M10.1331 56.2978L7.85596 55.2574L13.8334 53.5891L12.1635 55.7314L10.1331 56.2978Z" fill="url(#paint21_linear_22_46634)"/>
<path d="M17.5468 49.3911L13.8336 53.5896L12.1636 55.732C12.1636 55.732 14.6939 53.7435 14.7255 53.6697C14.7571 53.5958 17.5468 49.3911 17.5468 49.3911Z" fill="#0E82C6"/>
<path d="M10.1334 56.298L7.85618 55.2577L3.17529 54.5498L7.2426 55.9164L10.1334 56.298Z" fill="#097ADB"/>
<path d="M12.037 47.0821L5.92648 48.9105L1.1001 47.8393L4.56017 44.5766L10.6706 42.7544L14.9657 43.4623L12.037 47.0821Z" fill="#BBECFF"/>
<path d="M12.037 47.0826L5.92648 48.911L1.1001 47.8398L5.84425 48.4308L11.8029 46.6948L14.9657 43.4628L12.037 47.0826Z" fill="white"/>
<path d="M11.2786 45.5373L5.79431 47.0702L2.53662 46.7932L4.85812 44.4907L10.431 42.8224L13.5369 43.438L11.2786 45.5373Z" fill="#70CEF2"/>
<path d="M10.4307 42.8224L9.1656 43.1979C9.03909 44.4599 7.7297 45.5865 6.75556 46.2391C6.32285 46.5312 5.87296 46.7984 5.4082 47.0394L5.77509 47.0702L11.2594 45.5373L13.5176 43.4319L10.4307 42.8224Z" fill="#62C3E8"/>
<path d="M1.10068 47.8397L0.019043 52.1982L5.16155 53.1893L5.92691 48.9108L1.10068 47.8397Z" fill="#86D4FC"/>
<path d="M1.21436 47.858C2.5733 49.4589 3.72475 51.2163 4.64276 53.0908L5.16145 53.1893L5.92683 48.88L1.21436 47.858Z" fill="#AEE6FF"/>
<path d="M12.0376 47.0826L14.9412 50.4623L18.5912 46.2084L14.9665 43.4628L12.0376 47.0826Z" fill="#2BA4E2"/>
<path d="M15.2824 43.6968L14.9661 43.4628L12.0376 47.0765L14.9408 50.4562L15.2444 50.1053C14.8469 47.9855 14.8597 45.812 15.2824 43.6968Z" fill="#6DC6F7"/>
<path d="M5.92701 48.9109L5.16162 53.1895L14.941 50.4623L12.0375 47.0825L5.92701 48.9109Z" fill="#32ABFC"/>
<path d="M12.2395 47.292C13.2833 49.8037 7.73573 52.3585 5.69257 52.8325C5.61651 52.8499 5.53705 52.847 5.4625 52.8243C5.38796 52.8015 5.32105 52.7597 5.26876 52.7033L5.18652 53.1957L14.9659 50.4686L12.2395 47.292Z" fill="#1E97F4"/>
<path opacity="0.51" d="M16.6675 44.7674C14.7698 45.1983 12.3725 46.0478 11.3478 47.8454C10.9556 48.5349 11.721 49.9077 12.0119 51.2867C12.3598 53.6753 12.3598 53.6753 12.0562 55.7684H12.1384C12.1384 55.7684 14.6686 53.78 14.7003 53.7061C14.7319 53.6322 17.5214 49.3968 17.5214 49.3968L18.5651 46.2141L16.6675 44.7674Z" fill="#024784"/>
<path d="M15.3203 52.8503L14.7257 50.4802L12.2207 47.6422L12.9545 50.394L15.3203 52.8503Z" fill="#0399F2"/>
<path d="M19.5332 54.5129L21.3486 53.1955L25.6879 52.346L23.6194 53.7249L19.5332 54.5129Z" fill="url(#paint22_linear_22_46634)"/>
<path d="M15.3202 52.8505L14.7256 50.4804L21.6145 53.1952L19.5333 54.5126L15.3202 52.8505Z" fill="#057FDD"/>
<path d="M16.1553 54.4517L15.3203 52.851L19.5332 54.5133L17.5786 55.0119L16.1553 54.4517Z" fill="url(#paint23_linear_22_46634)"/>
<path d="M23.6258 53.7252L19.5459 54.5132L17.5913 55.0119C17.5913 55.0119 19.9507 54.9626 20.0266 54.9503C20.1025 54.938 23.6258 53.7252 23.6258 53.7252Z" fill="#0E82C6"/>
<path d="M16.1553 54.4512L15.3203 52.8507L12.9546 50.3944L14.6625 52.9615L16.1553 54.4512Z" fill="#097ADB"/>
<path d="M21.513 49.976L17.1483 48.3507L14.8647 45.6174L18.3691 45.2603L22.7275 46.8917L24.8718 49.1818L21.513 49.976Z" fill="#BBECFF"/>
<path d="M21.513 49.9761L17.1483 48.3509L14.8647 45.6176L17.3254 48.0431L21.5572 49.656L24.8718 49.182L21.513 49.9761Z" fill="white"/>
<path d="M21.7915 48.7571L17.9265 47.2365L16.1743 45.642L18.5781 45.3404L22.5569 46.824L24.0625 48.5354L21.7915 48.7571Z" fill="#70CEF2"/>
<path d="M22.5569 46.8239L21.665 46.4915C21.0325 47.1625 19.7357 47.2364 18.8754 47.1871C18.4891 47.1661 18.1045 47.1208 17.7241 47.0517L17.9265 47.2364L21.7915 48.757L24.0625 48.5353L22.5569 46.8239Z" fill="#62C3E8"/>
<path d="M14.8648 45.6176L12.2271 47.6553L14.7256 50.481L17.1483 48.3509L14.8648 45.6176Z" fill="#86D4FC"/>
<path d="M14.9213 45.6786C14.9619 47.197 14.8111 48.7146 14.4722 50.1973L14.7252 50.4805L17.1482 48.3504L14.9213 45.6786Z" fill="#AEE6FF"/>
<path d="M21.5132 49.9754L21.6144 53.1952L25.688 52.3456L24.872 49.1813L21.5132 49.9754Z" fill="#2BA4E2"/>
<path d="M24.9478 49.4522L24.8719 49.1813L21.5063 49.9754L21.6139 53.1952L21.9555 53.1275C22.709 51.7317 23.7239 50.4852 24.9478 49.4522Z" fill="#6DC6F7"/>
<path d="M17.1484 48.3504L14.7256 50.4804L21.6145 53.1954L21.5133 49.9756L17.1484 48.3504Z" fill="#32ABFC"/>
<path d="M21.5133 50.1542C20.9566 52.0564 16.5791 51.0961 15.1874 50.4682C15.1349 50.4462 15.0899 50.4103 15.0574 50.3646C15.025 50.3189 15.0064 50.2652 15.0039 50.2096L14.7256 50.4559L21.6145 53.1707L21.5133 50.1542Z" fill="#1E97F4"/>
<path d="M14.4789 24.2922L12.8912 22.9932L9.7915 22.2853L11.6639 23.7751L14.4789 24.2922Z" fill="#0399F2"/>
<path d="M18.1289 23.3997L18.6792 21.6575L21.1459 19.0288L20.4565 20.9311L18.1289 23.3997Z" fill="#1574BC"/>
<path d="M14.4793 24.2919L12.8916 22.993L18.8565 21.5278L18.1291 23.3992L14.4793 24.2919Z" fill="#055FA3"/>
<path d="M15.8323 24.963L14.4785 24.292L18.1287 23.3994L17.0723 24.6614L15.8323 24.963Z" fill="#0E6CAF"/>
<path d="M20.463 20.9311L18.1287 23.3935L17.0786 24.6555C17.0786 24.6555 18.6285 23.4982 18.6664 23.4243C18.7044 23.3504 20.463 20.9311 20.463 20.9311Z" fill="#0C6AAD"/>
<path d="M15.8324 24.9634L14.4788 24.2924L11.6641 23.7752L14.093 24.6802L15.8324 24.9634Z" fill="#097ADB"/>
<path d="M17.1672 19.429L13.4352 20.4202L10.5444 19.6753L12.7014 17.773L16.4335 16.788L19.0143 17.299L17.1672 19.429Z" fill="#BBECFF"/>
<path d="M17.1672 19.4294L13.4352 20.4206L10.5444 19.6757L13.4035 20.1251L17.0407 19.1955L19.0143 17.2993L17.1672 19.4294Z" fill="white"/>
<path d="M16.7434 18.4808L13.3974 19.2995L11.4302 19.0718L12.885 17.7235L16.288 16.8247L18.154 17.2556L16.7434 18.4808Z" fill="#70CEF2"/>
<path d="M16.288 16.8247L15.5226 17.0279C15.4214 17.7851 14.6117 18.4438 14.0044 18.8193C13.7375 18.9866 13.4608 19.1387 13.1758 19.2748H13.3972L16.7434 18.4561L18.1541 17.2248L16.288 16.8247Z" fill="#62C3E8"/>
<path d="M10.5444 19.6749L9.8042 22.2974L12.8913 22.993L13.4354 20.4198L10.5444 19.6749Z" fill="#86D4FC"/>
<path d="M10.6079 19.6936C11.3964 20.6868 12.0571 21.7701 12.5753 22.9194L12.8916 22.9933L13.4357 20.42L10.6079 19.6936Z" fill="#AEE6FF"/>
<path d="M17.167 19.4293L18.8561 21.5286L21.1461 19.0292L19.0142 17.2993L17.167 19.4293Z" fill="#2BA4E2"/>
<path d="M19.1975 17.4471L19.0077 17.2993L17.1606 19.4293L18.8496 21.5347L19.0394 21.3254C18.8401 20.0345 18.8938 18.7185 19.1975 17.4471Z" fill="#6DC6F7"/>
<path d="M13.4356 20.4202L12.8916 22.9935L18.8565 21.5283L17.1676 19.4291L13.4356 20.4202Z" fill="#32ABFC"/>
<path d="M17.3002 19.5645C17.8758 21.1035 14.4729 22.5378 13.2269 22.7779C13.1813 22.7888 13.1334 22.787 13.0887 22.7729C13.044 22.7588 13.0043 22.7328 12.9739 22.6979L12.917 22.9934L18.8815 21.5344L17.3002 19.5645Z" fill="#1E97F4"/>
<path d="M12.4109 27.0873L11.5062 26.521L9.87402 26.3609L10.9369 27.0011L12.4109 27.0873Z" fill="#0399F2"/>
<path d="M14.2134 26.3913L14.3778 25.4618L15.4654 23.9597L15.2377 24.9755L14.2134 26.3913Z" fill="url(#paint24_linear_22_46634)"/>
<path d="M12.4104 27.0874L11.5059 26.521L14.4598 25.3883L14.2131 26.3917L12.4104 27.0874Z" fill="#057FDD"/>
<path d="M13.1507 27.3397L12.4106 27.0873L14.2132 26.3916L13.7642 27.1058L13.1507 27.3397Z" fill="url(#paint25_linear_22_46634)"/>
<path d="M15.2379 24.9817L14.2132 26.3915L13.7642 27.1057C13.7642 27.1057 14.4789 26.4162 14.4915 26.3915C14.5042 26.3669 15.2379 24.9817 15.2379 24.9817Z" fill="#0E82C6"/>
<path d="M13.1506 27.3397L12.4105 27.0872L10.9365 27.001L12.2397 27.3089L13.1506 27.3397Z" fill="#097ADB"/>
<path d="M13.454 24.4219L11.6133 25.1668L10.0825 24.976L11.0567 23.8678L12.8974 23.1228L14.2574 23.2152L13.454 24.4219Z" fill="#BBECFF"/>
<path d="M13.454 24.4214L11.6133 25.1662L10.0825 24.9754L11.5753 25.0246L13.3718 24.3106L14.2574 23.2149L13.454 24.4214Z" fill="white"/>
<path d="M13.1697 23.9663L11.5188 24.6004L10.4941 24.6127L11.1456 23.8309L12.8281 23.1475L13.8085 23.246L13.1697 23.9663Z" fill="#70CEF2"/>
<path d="M12.8284 23.1475L12.4489 23.3014C12.3823 23.7073 12.1553 24.0719 11.8164 24.3172C11.6906 24.4224 11.5574 24.5191 11.418 24.6066H11.5381L13.1953 23.9909L13.8278 23.2706L12.8284 23.1475Z" fill="#62C3E8"/>
<path d="M10.0828 24.9757L9.88037 26.3671L11.5059 26.521L11.6134 25.1666L10.0828 24.9757Z" fill="#86D4FC"/>
<path d="M10.1143 24.9817C10.5999 25.4372 11.0249 25.9501 11.3794 26.5085H11.5375L11.645 25.1541L10.1143 24.9817Z" fill="#AEE6FF"/>
<path d="M13.4541 24.4214L14.46 25.3879L15.4659 23.9597L14.2576 23.2149L13.4541 24.4214Z" fill="#2BA4E2"/>
<path d="M14.3589 23.2764L14.2576 23.2149L13.4541 24.4461L14.4601 25.4126L14.5423 25.2956C14.3541 24.6393 14.2919 23.9547 14.3589 23.2764Z" fill="#6DC6F7"/>
<path d="M11.6134 25.1663L11.5059 26.5206L14.4598 25.3879L13.4541 24.4214L11.6134 25.1663Z" fill="#32ABFC"/>
<path d="M13.5047 24.4834C13.9032 25.2344 12.2396 26.1887 11.645 26.3918C11.6241 26.4043 11.6 26.411 11.5754 26.411C11.5509 26.411 11.5268 26.4043 11.5059 26.3918V26.5457L14.4598 25.413L13.5047 24.4834Z" fill="#1E97F4"/>
<path style="mix-blend-mode:screen" d="M15.0799 20.094C15.0799 20.5545 14.9395 21.0047 14.6764 21.3875C14.4134 21.7703 14.0396 22.0685 13.6022 22.2445C13.1649 22.4204 12.6838 22.4661 12.2198 22.3759C11.7557 22.2856 11.3297 22.0633 10.9955 21.7373C10.6613 21.4112 10.4341 20.996 10.3425 20.5442C10.251 20.0924 10.2992 19.6243 10.4812 19.1992C10.6632 18.7741 10.9706 18.4111 11.3647 18.1562C11.7588 17.9012 12.2217 17.7658 12.6949 17.767C13.0087 17.767 13.3193 17.8272 13.6091 17.9442C13.8988 18.0613 14.162 18.2328 14.3836 18.4489C14.6051 18.6651 14.7807 18.9217 14.9001 19.204C15.0196 19.4862 15.0807 19.7887 15.0799 20.094Z" fill="url(#paint26_radial_22_46634)"/>
<path style="mix-blend-mode:screen" d="M17.3001 20.0937C17.3001 20.2044 15.2506 20.2968 12.7267 20.2968C10.2028 20.2968 8.14697 20.2044 8.14697 20.0937C8.14697 19.9829 10.1965 19.8844 12.7267 19.8844C15.2569 19.8844 17.3001 19.989 17.3001 20.0937Z" fill="url(#paint27_radial_22_46634)"/>
<path style="mix-blend-mode:screen" d="M12.6951 24.5512C12.5749 24.5512 12.48 22.5504 12.48 20.094C12.48 17.6377 12.5749 15.6369 12.6951 15.6369C12.8154 15.6369 12.904 17.6315 12.904 20.094C12.904 22.5565 12.809 24.5512 12.6951 24.5512Z" fill="url(#paint28_radial_22_46634)"/>
<path style="mix-blend-mode:screen" d="M15.9276 23.2457C15.8454 23.3257 14.3335 21.9775 12.5432 20.2353C10.753 18.4931 9.38021 17.0218 9.45613 16.9418C9.53204 16.8617 11.0566 18.173 12.8405 19.946C14.6245 21.7189 16.0352 23.1656 15.9276 23.2457Z" fill="url(#paint29_radial_22_46634)"/>
<path style="mix-blend-mode:screen" d="M9.45662 23.2457C9.37439 23.1657 10.7533 21.6882 12.5433 19.946C14.3333 18.2039 15.845 16.868 15.9336 16.9419C16.0221 17.0157 14.6306 18.4993 12.8406 20.2354C11.0506 21.9714 9.53885 23.3257 9.45662 23.2457Z" fill="url(#paint30_radial_22_46634)"/>
<path style="mix-blend-mode:screen" d="M19.0718 48.3073C19.0718 48.7664 18.9319 49.2151 18.6699 49.5967C18.4078 49.9784 18.0354 50.2759 17.5996 50.4515C17.1639 50.6272 16.6844 50.6732 16.2218 50.5836C15.7592 50.4941 15.3342 50.273 15.0007 49.9484C14.6672 49.6239 14.4401 49.2103 14.3481 48.7601C14.2561 48.3099 14.3033 47.8433 14.4838 47.4192C14.6643 46.9951 14.9699 46.6326 15.3621 46.3776C15.7543 46.1226 16.2153 45.9865 16.687 45.9865C17.3195 45.9865 17.9261 46.231 18.3733 46.6663C18.8205 47.1015 19.0718 47.6918 19.0718 48.3073Z" fill="url(#paint31_radial_22_46634)"/>
<path style="mix-blend-mode:screen" d="M21.2665 48.3075C21.2665 48.4183 19.217 48.5106 16.6867 48.5106C14.1565 48.5106 12.1069 48.4183 12.1069 48.3075C12.1069 48.1967 14.1565 48.0982 16.6867 48.0982C19.217 48.0982 21.2665 48.1598 21.2665 48.3075Z" fill="url(#paint32_radial_22_46634)"/>
<path style="mix-blend-mode:screen" d="M16.6676 52.7334C16.5538 52.7334 16.459 50.7388 16.459 48.2764C16.459 45.814 16.5538 43.8194 16.6676 43.8194C16.7814 43.8194 16.8825 45.814 16.8825 48.2764C16.8825 50.7388 16.8066 52.7334 16.6676 52.7334Z" fill="url(#paint33_radial_22_46634)"/>
<path style="mix-blend-mode:screen" d="M19.9253 51.4289C19.8431 51.5089 18.3249 50.1607 16.5348 48.4246C14.7446 46.6886 13.3719 45.2049 13.4478 45.1249C13.5237 45.0449 15.0482 46.3562 16.8384 48.1291C18.6286 49.9021 20.0076 51.3488 19.9253 51.4289Z" fill="url(#paint34_radial_22_46634)"/>
<path style="mix-blend-mode:screen" d="M13.4478 51.4283C13.3656 51.3482 14.7509 49.8708 16.5411 48.1286C18.3312 46.3864 19.8431 45.0505 19.9253 45.1244C20.0075 45.1982 18.6285 46.6819 16.8384 48.4241C15.0482 50.1662 13.5047 51.5083 13.4478 51.4283Z" fill="url(#paint35_radial_22_46634)"/>
<path style="mix-blend-mode:screen" d="M20.7854 32.7386C20.8815 33.0475 20.8812 33.3772 20.7847 33.686C20.6882 33.9948 20.4997 34.2687 20.2431 34.4732C19.9865 34.6777 19.6734 34.8036 19.3433 34.8348C19.0132 34.866 18.681 34.8013 18.3888 34.6487C18.0965 34.4962 17.8574 34.2627 17.7015 33.9778C17.5457 33.6929 17.4801 33.3694 17.5133 33.0482C17.5464 32.7271 17.6766 32.4227 17.8875 32.1736C18.0984 31.9246 18.3805 31.742 18.6981 31.649C19.1233 31.5244 19.582 31.5692 19.9734 31.7735C20.3647 31.9778 20.6568 32.3249 20.7854 32.7386Z" fill="url(#paint36_radial_22_46634)"/>
<path style="mix-blend-mode:screen" d="M22.2596 32.3012C21.282 32.737 20.2657 33.0852 19.2232 33.3416C18.2101 33.688 17.166 33.9415 16.1045 34.0988C17.0823 33.6651 18.0986 33.3189 19.1409 33.0646C20.1535 32.7152 21.1977 32.4596 22.2596 32.3012Z" fill="url(#paint37_radial_22_46634)"/>
<path style="mix-blend-mode:screen" d="M20.109 36.1982C19.6621 35.2487 19.3043 34.2617 19.0401 33.2494C18.6856 32.2627 18.4231 31.247 18.2559 30.2145C18.7094 31.1614 19.0673 32.149 19.3247 33.1632C19.6793 34.1499 19.9418 35.1657 20.109 36.1982Z" fill="url(#paint38_radial_22_46634)"/>
<path style="mix-blend-mode:screen" d="M22.0127 34.6899C21.0084 34.3213 20.039 33.8681 19.1157 33.3355C18.1473 32.8805 17.2223 32.3429 16.3516 31.7288C17.3608 32.0883 18.3328 32.5397 19.2548 33.077C20.2242 33.5289 21.1476 34.069 22.0127 34.6899Z" fill="url(#paint39_radial_22_46634)"/>
<path style="mix-blend-mode:screen" d="M17.6606 35.9581C18.0361 34.9793 18.5019 34.0355 19.0522 33.1385C19.5188 32.1974 20.0713 31.2991 20.7032 30.4543C20.3309 31.4344 19.865 32.3784 19.3116 33.2739C18.8506 34.2179 18.2978 35.1167 17.6606 35.9581Z" fill="url(#paint40_radial_22_46634)"/>
<path style="mix-blend-mode:screen" d="M22.5756 9.14798C22.4953 9.40912 22.3373 9.64124 22.1215 9.81503C21.9058 9.98882 21.642 10.0965 21.3634 10.1244C21.0848 10.1523 20.8039 10.0993 20.5563 9.97196C20.3087 9.84464 20.1054 9.64874 19.9721 9.40902C19.8388 9.1693 19.7814 8.89651 19.8073 8.6251C19.8332 8.35369 19.9412 8.09584 20.1176 7.88411C20.294 7.67239 20.5309 7.51628 20.7983 7.43552C21.0658 7.35475 21.3519 7.35296 21.6205 7.43035C21.7992 7.48186 21.9657 7.56719 22.1105 7.68146C22.2553 7.79573 22.3755 7.93668 22.4643 8.09624C22.553 8.2558 22.6085 8.43084 22.6276 8.61132C22.6467 8.79179 22.629 8.97417 22.5756 9.14798Z" fill="url(#paint41_radial_22_46634)"/>
<path style="mix-blend-mode:screen" d="M23.8284 9.52389C22.9289 9.40146 22.0434 9.19531 21.1843 8.90828C20.2998 8.69908 19.4378 8.40843 18.6099 8.04025C19.5087 8.16625 20.3938 8.37233 21.2539 8.65587C22.1364 8.8717 22.9979 9.16214 23.8284 9.52389Z" fill="url(#paint42_radial_22_46634)"/>
<path style="mix-blend-mode:screen" d="M20.4634 11.2907C20.5961 10.4185 20.8078 9.55949 21.0957 8.72358C21.3143 7.86302 21.6149 7.02421 21.9937 6.21805C21.8606 7.09215 21.649 7.9532 21.3613 8.79129C21.1435 9.65007 20.8428 10.4869 20.4634 11.2907Z" fill="url(#paint43_radial_22_46634)"/>
<path style="mix-blend-mode:screen" d="M22.5185 11.0813C21.9768 10.3705 21.5046 9.61208 21.108 8.81581C20.641 8.05479 20.2432 7.25556 19.9189 6.42722C20.4614 7.13958 20.9337 7.90016 21.3294 8.69884C21.797 9.4574 22.1949 10.2546 22.5185 11.0813Z" fill="url(#paint44_radial_22_46634)"/>
<path style="mix-blend-mode:screen" d="M18.8311 10.016C19.5619 9.49136 20.3413 9.03383 21.159 8.64929C21.9419 8.18848 22.768 7.80095 23.6261 7.49191C22.8963 8.01992 22.1169 8.47958 21.2982 8.86475C20.5143 9.32223 19.6884 9.70764 18.8311 10.016Z" fill="url(#paint45_radial_22_46634)"/>
<path style="mix-blend-mode:screen" d="M39.5032 36.6106C39.3629 36.9214 39.1311 37.1848 38.8371 37.3675C38.5431 37.5501 38.2 37.6439 37.8513 37.637C37.5025 37.63 37.1637 37.5226 36.8776 37.3284C36.5915 37.1342 36.371 36.8618 36.2439 36.5456C36.1168 36.2295 36.0888 35.8838 36.1634 35.5522C36.2381 35.2206 36.4121 34.9179 36.6633 34.6825C36.9146 34.447 37.232 34.2893 37.5753 34.2293C37.9186 34.1692 38.2725 34.2095 38.5923 34.3451C39.0212 34.5287 39.3578 34.8702 39.5285 35.2948C39.6992 35.7194 39.6902 36.1925 39.5032 36.6106Z" fill="url(#paint46_radial_22_46634)"/>
<path style="mix-blend-mode:screen" d="M40.9899 37.2262C39.8998 36.9298 38.8408 36.534 37.8269 36.0443C36.7674 35.653 35.7486 35.1645 34.7842 34.5853C35.872 34.8885 36.9304 35.284 37.9471 35.7673C39.0039 36.1646 40.0222 36.6528 40.9899 37.2262Z" fill="url(#paint47_radial_22_46634)"/>
<path style="mix-blend-mode:screen" d="M36.5303 38.9501C36.8349 37.8892 37.2414 36.8587 37.7446 35.872C38.1513 34.8429 38.653 33.8519 39.2435 32.9109C38.9403 33.9722 38.5337 35.0029 38.0292 35.989C37.6253 37.0193 37.1235 38.0106 36.5303 38.9501Z" fill="url(#paint48_radial_22_46634)"/>
<path style="mix-blend-mode:screen" d="M39.1233 39.0053C38.5684 38.0428 38.1047 37.0332 37.7379 35.9888C37.2828 34.9791 36.9188 33.9327 36.6499 32.8615C37.2078 33.8226 37.6716 34.8325 38.0352 35.878C38.4914 36.8874 38.8554 37.9339 39.1233 39.0053Z" fill="url(#paint49_radial_22_46634)"/>
<path style="mix-blend-mode:screen" d="M34.7334 37.134C35.7219 36.5946 36.7595 36.1454 37.833 35.7919C38.8657 35.342 39.9394 34.9875 41.0402 34.7331C40.0517 35.2724 39.0141 35.7217 37.9406 36.0751C36.9066 36.5218 35.8332 36.8762 34.7334 37.134Z" fill="url(#paint50_radial_22_46634)"/>
<path style="mix-blend-mode:screen" d="M30.3054 43.2959C30.4015 43.6048 30.4012 43.9345 30.3047 44.2433C30.2081 44.5521 30.0196 44.8261 29.763 45.0306C29.5064 45.2351 29.1932 45.3609 28.8631 45.3922C28.533 45.4234 28.2007 45.3586 27.9085 45.2061C27.6162 45.0535 27.377 44.82 27.2211 44.5351C27.0652 44.2502 26.9997 43.9267 27.0328 43.6056C27.0659 43.2844 27.1962 42.98 27.4071 42.7309C27.618 42.4819 27.9002 42.2993 28.2178 42.2063C28.6431 42.0817 29.1018 42.1265 29.4932 42.3308C29.8847 42.5351 30.1768 42.8822 30.3054 43.2959Z" fill="url(#paint51_radial_22_46634)"/>
<path style="mix-blend-mode:screen" d="M31.7792 42.8651C30.8024 43.3027 29.7859 43.651 28.7429 43.9056C27.7294 44.2515 26.6856 44.507 25.6245 44.669C26.6008 44.2301 27.6173 43.8818 28.6607 43.6285C29.6741 43.2819 30.7179 43.0264 31.7792 42.8651Z" fill="url(#paint52_radial_22_46634)"/>
<path style="mix-blend-mode:screen" d="M29.629 46.7624C29.1794 45.8118 28.8215 44.8225 28.5599 43.8074C28.2037 42.8212 27.9411 41.8053 27.7754 40.7724C28.2263 41.7225 28.5843 42.7119 28.8445 43.7274C29.2007 44.7137 29.4633 45.7296 29.629 46.7624Z" fill="url(#paint53_radial_22_46634)"/>
<path style="mix-blend-mode:screen" d="M31.5326 45.2294C30.5246 44.8647 29.5527 44.4114 28.6291 43.8751C27.6622 43.421 26.7391 42.8833 25.8711 42.2684C26.8768 42.6338 27.8465 43.0871 28.7683 43.6227C29.7392 44.0732 30.6647 44.6111 31.5326 45.2294Z" fill="url(#paint54_radial_22_46634)"/>
<path style="mix-blend-mode:screen" d="M27.1807 46.5223C27.5521 45.5399 28.018 44.5938 28.5723 43.6966C29.0332 42.7527 29.586 41.8538 30.2232 41.0125C29.8471 41.993 29.3814 42.9387 28.8316 43.8382C28.365 44.7793 27.8125 45.6776 27.1807 46.5223Z" fill="url(#paint55_radial_22_46634)"/>
<path style="mix-blend-mode:screen" d="M13.6755 35.8351C13.6747 35.9448 13.6515 36.0532 13.6075 36.1541C13.5634 36.255 13.4992 36.3465 13.4187 36.4232C13.3381 36.4998 13.2428 36.5603 13.1381 36.6009C13.0335 36.6416 12.9216 36.6616 12.8089 36.66C12.6385 36.6588 12.4723 36.6083 12.3314 36.515C12.1905 36.4217 12.0813 36.2898 12.0175 36.136C11.9538 35.9822 11.9384 35.8135 11.9734 35.6511C12.0083 35.4888 12.092 35.3403 12.2138 35.2243C12.3356 35.1083 12.4901 35.0302 12.6576 34.9998C12.8251 34.9694 12.9982 34.9881 13.1547 35.0535C13.3113 35.1189 13.4444 35.2282 13.5371 35.3673C13.6298 35.5065 13.678 35.6693 13.6755 35.8351Z" fill="url(#paint56_radial_22_46634)"/>
<path style="mix-blend-mode:screen" d="M14.4662 35.841C13.919 35.9111 13.3661 35.9296 12.8152 35.8963C12.2652 35.9111 11.715 35.8803 11.1704 35.8041C11.7176 35.7339 12.2706 35.7154 12.8215 35.7487C13.3714 35.7339 13.9217 35.7648 14.4662 35.841Z" fill="url(#paint57_radial_22_46634)"/>
<path style="mix-blend-mode:screen" d="M12.7962 37.4296C12.7316 36.8964 12.7125 36.359 12.7392 35.8228C12.7204 35.2853 12.7544 34.7473 12.8406 34.2161C12.909 34.7489 12.9281 35.2867 12.8976 35.8228C12.9164 36.3603 12.8825 36.8983 12.7962 37.4296Z" fill="url(#paint58_radial_22_46634)"/>
<path style="mix-blend-mode:screen" d="M13.9726 36.9742C13.5365 36.6432 13.1322 36.2744 12.7646 35.8723C12.3585 35.4985 11.9919 35.086 11.6704 34.641C12.1036 34.9731 12.5057 35.3419 12.8721 35.743C13.2768 36.1198 13.6452 36.5319 13.9726 36.9742Z" fill="url(#paint59_radial_22_46634)"/>
<path style="mix-blend-mode:screen" d="M11.6387 36.9433C11.9754 36.5179 12.3524 36.1243 12.7648 35.7675C13.1426 35.3775 13.5555 35.0211 13.9984 34.7024C13.2865 35.5204 12.4964 36.2708 11.6387 36.9433Z" fill="url(#paint60_radial_22_46634)"/>
<path style="mix-blend-mode:screen" d="M19.653 15.6245C19.6253 15.7248 19.5593 15.811 19.4684 15.8654C19.3774 15.9197 19.2686 15.9382 19.1641 15.9169C19.0596 15.8956 18.9675 15.8363 18.9066 15.751C18.8457 15.6657 18.8207 15.5609 18.8368 15.4583C18.8644 15.358 18.9305 15.2718 19.0214 15.2174C19.1123 15.163 19.2212 15.1446 19.3257 15.1658C19.4301 15.1871 19.5223 15.2465 19.5831 15.3318C19.644 15.4171 19.669 15.5218 19.653 15.6245Z" fill="url(#paint61_radial_22_46634)"/>
<path style="mix-blend-mode:screen" d="M20.026 15.6799C19.7593 15.6615 19.4948 15.6203 19.2355 15.5567C18.9748 15.5166 18.7186 15.4526 18.4702 15.3658C18.9974 15.4253 19.518 15.5304 20.026 15.6799Z" fill="url(#paint62_radial_22_46634)"/>
<path style="mix-blend-mode:screen" d="M19.0845 16.2951C19.1456 15.782 19.2535 15.2752 19.4069 14.7807C19.3878 15.0383 19.3455 15.2937 19.2804 15.544C19.2387 15.7997 19.1731 16.0511 19.0845 16.2951Z" fill="url(#paint63_radial_22_46634)"/>
<path style="mix-blend-mode:screen" d="M19.6847 16.1848C19.5091 15.9944 19.3524 15.7883 19.2167 15.5691C19.0615 15.3565 18.924 15.1321 18.8057 14.8981C18.9801 15.0894 19.1367 15.2954 19.2736 15.5137C19.4283 15.7267 19.5657 15.9511 19.6847 16.1848Z" fill="url(#paint64_radial_22_46634)"/>
<path style="mix-blend-mode:screen" d="M18.5654 15.9628C18.7632 15.7945 18.9748 15.6422 19.1979 15.5072C19.4148 15.359 19.6432 15.2273 19.881 15.1133C19.6869 15.286 19.475 15.4387 19.2485 15.5688C19.0334 15.7198 18.8048 15.8516 18.5654 15.9628Z" fill="url(#paint65_radial_22_46634)"/>
<path style="mix-blend-mode:screen" d="M27.51 29.2231C27.5088 29.3889 27.4569 29.5507 27.3611 29.6878C27.2652 29.8249 27.1297 29.9312 26.9716 29.9933C26.8136 30.0553 26.6402 30.0703 26.4734 30.0363C26.3066 30.0023 26.154 29.9208 26.0348 29.8023C25.9157 29.6837 25.8354 29.5334 25.8041 29.3703C25.7729 29.2073 25.7921 29.0389 25.8593 28.8865C25.9266 28.7341 26.0388 28.6046 26.1818 28.5144C26.3248 28.4242 26.492 28.3773 26.6624 28.3797C26.8895 28.383 27.106 28.4735 27.2648 28.6314C27.4236 28.7894 27.5117 29.0021 27.51 29.2231Z" fill="url(#paint66_radial_22_46634)"/>
<path style="mix-blend-mode:screen" d="M28.3004 29.2232C27.7529 29.2896 27.2004 29.3082 26.6495 29.2786C26.0972 29.2968 25.5444 29.2638 24.9985 29.1801C25.5464 29.1177 26.0987 29.1012 26.6495 29.1308C27.2015 29.1088 27.7545 29.1398 28.3004 29.2232Z" fill="url(#paint67_radial_22_46634)"/>
<path style="mix-blend-mode:screen" d="M26.6305 30.7934C26.5585 30.2609 26.5394 29.7228 26.5736 29.1867C26.5584 28.6515 26.5901 28.116 26.6684 27.5861C26.7404 28.1186 26.7595 28.6567 26.7253 29.1928C26.7405 29.728 26.7088 30.2635 26.6305 30.7934Z" fill="url(#paint68_radial_22_46634)"/>
<path style="mix-blend-mode:screen" d="M27.8007 30.3374C27.3636 30.0097 26.9591 29.6428 26.5924 29.2415C26.1917 28.8738 25.8255 28.4721 25.498 28.0411C25.9352 28.3687 26.3397 28.7356 26.7063 29.1369C27.107 29.5046 27.4733 29.9064 27.8007 30.3374Z" fill="url(#paint69_radial_22_46634)"/>
<path style="mix-blend-mode:screen" d="M25.4668 30.313C26.1852 29.497 26.9771 28.745 27.833 28.0661C27.1146 28.8821 26.3227 29.6341 25.4668 30.313Z" fill="url(#paint70_radial_22_46634)"/>
<path style="mix-blend-mode:screen" d="M36.3088 42.287C36.3076 42.4528 36.2557 42.6146 36.1598 42.7517C36.0639 42.8888 35.9284 42.9952 35.7703 43.0572C35.6122 43.1192 35.4388 43.1342 35.2719 43.1002C35.1051 43.0662 34.9524 42.9847 34.8332 42.8662C34.714 42.7476 34.6337 42.5973 34.6025 42.4342C34.5712 42.2712 34.5904 42.1028 34.6577 41.9504C34.7249 41.798 34.8372 41.6685 34.9802 41.5782C35.1232 41.488 35.2906 41.4411 35.461 41.4436C35.6881 41.4468 35.9047 41.5373 36.0635 41.6953C36.2223 41.8533 36.3105 42.066 36.3088 42.287Z" fill="url(#paint71_radial_22_46634)"/>
<path style="mix-blend-mode:screen" d="M37.0992 42.2989C36.552 42.3691 35.9991 42.3877 35.4483 42.3543C34.896 42.3726 34.3432 42.3396 33.7974 42.2558C34.3452 42.1937 34.8975 42.1772 35.4483 42.2066C36.0004 42.1846 36.5533 42.2155 37.0992 42.2989Z" fill="url(#paint72_radial_22_46634)"/>
<path style="mix-blend-mode:screen" d="M35.4293 43.8814C35.3573 43.3509 35.3383 42.8148 35.3724 42.2808C35.3574 41.7435 35.3891 41.206 35.4672 40.674C35.5392 41.2065 35.5583 41.7446 35.5241 42.2808C35.5436 42.816 35.5119 43.3519 35.4293 43.8814Z" fill="url(#paint73_radial_22_46634)"/>
<path style="mix-blend-mode:screen" d="M36.5995 43.426C35.7631 42.7289 34.9925 41.9604 34.2969 41.1296C34.734 41.4573 35.1385 41.8242 35.5051 42.2255C35.9059 42.5932 36.2721 42.9949 36.5995 43.426Z" fill="url(#paint74_radial_22_46634)"/>
<path style="mix-blend-mode:screen" d="M34.272 43.3825C34.9837 42.5645 35.7737 41.8142 36.6312 41.1416C36.2934 41.5642 35.9166 41.9557 35.5054 42.3113C35.1265 42.7021 34.7139 43.0605 34.272 43.3825Z" fill="url(#paint75_radial_22_46634)"/>
<path style="mix-blend-mode:screen" d="M20.4632 11.8508C20.4607 12.0161 20.4079 12.177 20.3116 12.3131C20.2153 12.4493 20.0797 12.5547 19.9219 12.616C19.7642 12.6773 19.5913 12.6918 19.4251 12.6576C19.2589 12.6234 19.1068 12.5421 18.988 12.4239C18.8692 12.3057 18.789 12.156 18.7576 11.9935C18.7261 11.8311 18.7448 11.6632 18.8112 11.511C18.8776 11.3589 18.9889 11.2293 19.1309 11.1385C19.2729 11.0478 19.4393 11 19.6092 11.0012C19.8374 11.0061 20.0546 11.0977 20.2142 11.2565C20.3739 11.4153 20.4632 11.6286 20.4632 11.8508Z" fill="url(#paint76_radial_22_46634)"/>
<path style="mix-blend-mode:screen" d="M21.2602 11.8569C20.7129 11.9271 20.16 11.9456 19.6091 11.9123C19.0591 11.9271 18.5089 11.8962 17.9644 11.82C18.5116 11.7499 19.0645 11.7313 19.6154 11.7646C20.1654 11.7498 20.7156 11.7807 21.2602 11.8569Z" fill="url(#paint77_radial_22_46634)"/>
<path style="mix-blend-mode:screen" d="M19.5902 13.445C19.5262 12.9118 19.5092 12.3743 19.5394 11.8383C19.5168 11.3011 19.5487 10.7629 19.6345 10.2317C19.7068 10.7642 19.7259 11.3023 19.6916 11.8383C19.7104 12.3758 19.6764 12.9138 19.5902 13.445Z" fill="url(#paint78_radial_22_46634)"/>
<path style="mix-blend-mode:screen" d="M20.7665 12.9837C20.3294 12.656 19.9249 12.2891 19.5583 11.8879C19.1521 11.5141 18.7854 11.1016 18.4639 10.6566C18.8962 10.9875 19.2984 11.3542 19.6658 11.7524C20.067 12.1326 20.4351 12.5444 20.7665 12.9837Z" fill="url(#paint79_radial_22_46634)"/>
<path style="mix-blend-mode:screen" d="M18.4326 12.9588C18.7693 12.5334 19.1463 12.1397 19.5587 11.783C19.9465 11.3916 20.37 11.0352 20.8239 10.718C20.112 11.536 19.3219 12.2863 18.4642 12.9588H18.4326Z" fill="url(#paint80_radial_22_46634)"/>
<path style="mix-blend-mode:screen" d="M12.3535 25.4924C12.274 25.6387 12.1518 25.7587 12.0022 25.8374C11.8526 25.9161 11.6825 25.9499 11.5132 25.9345C11.3439 25.9192 11.1831 25.8553 11.0511 25.751C10.9191 25.6468 10.8217 25.5068 10.7714 25.3487C10.7211 25.1907 10.7201 25.0216 10.7684 24.863C10.8167 24.7043 10.9123 24.5632 11.043 24.4574C11.1737 24.3515 11.3337 24.2858 11.5028 24.2684C11.6719 24.251 11.8424 24.2828 11.993 24.3597C12.1941 24.4644 12.3448 24.642 12.4123 24.854C12.4798 25.066 12.4586 25.2954 12.3535 25.4924Z" fill="url(#paint81_radial_22_46634)"/>
<path style="mix-blend-mode:screen" d="M13.0497 25.8494C12.5315 25.6666 12.0318 25.4379 11.5567 25.1661C11.0584 24.9344 10.5821 24.6605 10.1333 24.3473C10.6514 24.5301 11.1512 24.7588 11.6263 25.0306C12.1246 25.2622 12.6009 25.5362 13.0497 25.8494Z" fill="url(#paint82_radial_22_46634)"/>
<path style="mix-blend-mode:screen" d="M10.8164 26.5144C11.0063 26.01 11.2434 25.5236 11.5249 25.0615C11.7572 24.5756 12.039 24.1136 12.3662 23.6825C12.1731 24.1856 11.9361 24.6717 11.6577 25.1354C11.4254 25.6213 11.1436 26.0833 10.8164 26.5144Z" fill="url(#paint83_radial_22_46634)"/>
<path style="mix-blend-mode:screen" d="M12.0755 26.6319C11.8433 26.1466 11.6569 25.6418 11.5187 25.1236C11.3353 24.6171 11.1977 24.0959 11.1074 23.5661C11.3396 24.0514 11.526 24.5562 11.6642 25.0744C11.8476 25.5809 11.9852 26.1021 12.0755 26.6319Z" fill="url(#paint84_radial_22_46634)"/>
<path style="mix-blend-mode:screen" d="M10.0132 25.5725C10.5129 25.3423 11.034 25.1588 11.5694 25.0246C12.0899 24.8462 12.6254 24.7123 13.1698 24.6245C12.6706 24.8542 12.1493 25.0356 11.6136 25.1662C11.0938 25.3484 10.5582 25.4844 10.0132 25.5725Z" fill="url(#paint85_radial_22_46634)"/>
<path style="mix-blend-mode:screen" d="M30.4761 23.9661C30.3383 24.4049 30.0699 24.794 29.7049 25.0844C29.3399 25.3747 28.8947 25.5533 28.4255 25.5974C27.9563 25.6416 27.4842 25.5494 27.0688 25.3325C26.6534 25.1156 26.3134 24.7838 26.0917 24.3789C25.87 23.9739 25.7766 23.5141 25.8232 23.0576C25.8699 22.601 26.0546 22.1682 26.3539 21.8137C26.6532 21.4592 27.0537 21.1991 27.5049 21.0661C27.956 20.9331 28.4376 20.9333 28.8886 21.0666C29.1891 21.1545 29.4687 21.2995 29.7114 21.4931C29.9541 21.6867 30.155 21.9251 30.3026 22.1947C30.4501 22.4642 30.5414 22.7595 30.5712 23.0635C30.601 23.3675 30.5687 23.6743 30.4761 23.9661Z" fill="url(#paint86_radial_22_46634)"/>
<path style="mix-blend-mode:screen" d="M32.5768 24.5878C32.5452 24.6924 30.5525 24.1999 28.1487 23.4858C25.7449 22.7717 23.7902 22.1007 23.8282 21.996C23.8661 21.8913 25.8524 22.3777 28.2563 23.0918C30.6601 23.8059 32.6084 24.477 32.5768 24.5878Z" fill="url(#paint87_radial_22_46634)"/>
<path style="mix-blend-mode:screen" d="M26.8646 27.5551C26.7508 27.5182 27.2568 25.5852 27.9906 23.2459C28.7244 20.9065 29.4139 19.0104 29.5277 19.0474C29.6416 19.0843 29.1355 21.0112 28.3954 23.3567C27.6553 25.7022 26.9785 27.5859 26.8646 27.5551Z" fill="url(#paint88_radial_22_46634)"/>
<path style="mix-blend-mode:screen" d="M30.35 27.2226C30.2487 27.2718 29.1986 25.5604 28.0094 23.3873C26.8201 21.2141 25.9345 19.4104 26.042 19.3611C26.1496 19.3119 27.1934 21.0233 28.3826 23.1903C29.5719 25.3572 30.4575 27.1672 30.35 27.2226Z" fill="url(#paint89_radial_22_46634)"/>
<path style="mix-blend-mode:screen" d="M24.1571 25.3879C24.1002 25.2894 25.8651 24.2674 28.098 23.1101C30.331 21.9527 32.1781 21.0908 32.2351 21.1893C32.292 21.2878 30.5271 22.3097 28.2941 23.4733C26.0612 24.6368 24.214 25.4864 24.1571 25.3879Z" fill="url(#paint90_radial_22_46634)"/>
<path style="mix-blend-mode:screen" d="M8.12796 49.1013C7.99112 49.5408 7.72344 49.9308 7.35877 50.2221C6.99411 50.5134 6.54885 50.6929 6.07933 50.7379C5.60981 50.7829 5.13713 50.6913 4.72109 50.4748C4.30506 50.2583 3.96437 49.9265 3.74212 49.5215C3.51987 49.1165 3.42606 48.6564 3.47254 48.1995C3.51903 47.7426 3.70374 47.3094 4.00328 46.9547C4.30283 46.5999 4.70376 46.3397 5.15535 46.2067C5.60694 46.0738 6.08889 46.0742 6.54022 46.208C7.14479 46.3871 7.65158 46.7924 7.94928 47.3349C8.24698 47.8774 8.31125 48.5128 8.12796 49.1013Z" fill="url(#paint91_radial_22_46634)"/>
<path style="mix-blend-mode:screen" d="M10.2277 49.7233C10.2277 49.8341 8.20355 49.3416 5.79986 48.6275C3.39617 47.9133 1.44159 47.2423 1.47955 47.1315C1.5175 47.0207 3.5037 47.5193 5.90739 48.2335C8.31108 48.9476 10.2593 49.6125 10.2277 49.7233Z" fill="url(#paint92_radial_22_46634)"/>
<path style="mix-blend-mode:screen" d="M4.51649 52.6906C4.40263 52.6599 4.90868 50.7268 5.64245 48.3813C6.37623 46.0359 7.06572 44.1459 7.17959 44.1767C7.29345 44.2075 6.7874 46.1467 6.04729 48.486C5.3072 50.8253 4.64933 52.7276 4.51649 52.6906Z" fill="url(#paint93_radial_22_46634)"/>
<path style="mix-blend-mode:screen" d="M8.00108 52.3583C7.89989 52.4137 6.84997 50.6961 5.6609 48.5291C4.47184 46.3622 3.58637 44.5523 3.68757 44.4969C3.78876 44.4415 4.84501 46.159 6.03407 48.3321C7.22313 50.5053 8.10861 52.309 8.00108 52.3583Z" fill="url(#paint94_radial_22_46634)"/>
<path style="mix-blend-mode:screen" d="M1.80896 50.5295C1.75203 50.431 3.5169 49.4091 5.74989 48.2455C7.98287 47.082 9.82999 46.2324 9.88692 46.3309C9.94385 46.4294 8.17897 47.4514 5.94599 48.6088C3.713 49.7662 1.86589 50.628 1.80896 50.5295Z" fill="url(#paint95_radial_22_46634)"/>
<defs>
<linearGradient id="paint0_linear_22_46634" x1="10.0699" y1="41.6335" x2="5.92602" y2="40.7646" gradientUnits="userSpaceOnUse">
<stop stop-color="#046BB1"/>
<stop offset="0.95" stop-color="#025CA1"/>
</linearGradient>
<linearGradient id="paint1_linear_22_46634" x1="-72.9729" y1="303.176" x2="-48.8178" y2="303.176" gradientUnits="userSpaceOnUse">
<stop stop-color="#046BB1"/>
<stop offset="0.95" stop-color="#025CA1"/>
</linearGradient>
<linearGradient id="paint2_linear_22_46634" x1="790.371" y1="846.607" x2="865.92" y2="900.297" gradientUnits="userSpaceOnUse">
<stop stop-color="#046BB1"/>
<stop offset="0.95" stop-color="#025CA1"/>
</linearGradient>
<linearGradient id="paint3_linear_22_46634" x1="160.517" y1="865.627" x2="201.103" y2="894.468" gradientUnits="userSpaceOnUse">
<stop stop-color="#046BB1"/>
<stop offset="0.95" stop-color="#025CA1"/>
</linearGradient>
<linearGradient id="paint4_linear_22_46634" x1="2654.66" y1="2836.42" x2="3281.51" y2="2836.42" gradientUnits="userSpaceOnUse">
<stop stop-color="#046BB1"/>
<stop offset="0.95" stop-color="#025CA1"/>
</linearGradient>
<linearGradient id="paint5_linear_22_46634" x1="1266.69" y1="3528.88" x2="1407.3" y2="3528.88" gradientUnits="userSpaceOnUse">
<stop stop-color="#046BB1"/>
<stop offset="0.95" stop-color="#025CA1"/>
</linearGradient>
<linearGradient id="paint6_linear_22_46634" x1="565.956" y1="601.685" x2="613.517" y2="621.488" gradientUnits="userSpaceOnUse">
<stop stop-color="#046BB1"/>
<stop offset="0.95" stop-color="#025CA1"/>
</linearGradient>
<linearGradient id="paint7_linear_22_46634" x1="327.693" y1="518.626" x2="358.097" y2="531.286" gradientUnits="userSpaceOnUse">
<stop stop-color="#046BB1"/>
<stop offset="0.95" stop-color="#025CA1"/>
</linearGradient>
<linearGradient id="paint8_linear_22_46634" x1="473.782" y1="467.12" x2="483.428" y2="465.996" gradientUnits="userSpaceOnUse">
<stop stop-color="#046BB1"/>
<stop offset="0.95" stop-color="#025CA1"/>
</linearGradient>
<linearGradient id="paint9_linear_22_46634" x1="440.853" y1="146.327" x2="450.236" y2="145.234" gradientUnits="userSpaceOnUse">
<stop stop-color="#046BB1"/>
<stop offset="0.95" stop-color="#025CA1"/>
</linearGradient>
<linearGradient id="paint10_linear_22_46634" x1="163.923" y1="193.378" x2="169.775" y2="197.438" gradientUnits="userSpaceOnUse">
<stop stop-color="#046BB1"/>
<stop offset="0.95" stop-color="#025CA1"/>
</linearGradient>
<linearGradient id="paint11_linear_22_46634" x1="63.9177" y1="201.063" x2="67.0971" y2="203.269" gradientUnits="userSpaceOnUse">
<stop stop-color="#046BB1"/>
<stop offset="0.95" stop-color="#025CA1"/>
</linearGradient>
<linearGradient id="paint12_linear_22_46634" x1="239.12" y1="237.228" x2="240.162" y2="236.659" gradientUnits="userSpaceOnUse">
<stop stop-color="#046BB1"/>
<stop offset="0.95" stop-color="#025CA1"/>
</linearGradient>
<linearGradient id="paint13_linear_22_46634" x1="231.847" y1="25.9785" x2="233.599" y2="25.0217" gradientUnits="userSpaceOnUse">
<stop stop-color="#046BB1"/>
<stop offset="0.95" stop-color="#025CA1"/>
</linearGradient>
<linearGradient id="paint14_linear_22_46634" x1="150.643" y1="160.78" x2="152.713" y2="161.44" gradientUnits="userSpaceOnUse">
<stop stop-color="#046BB1"/>
<stop offset="0.95" stop-color="#025CA1"/>
</linearGradient>
<linearGradient id="paint15_linear_22_46634" x1="115.692" y1="131.412" x2="117.099" y2="131.861" gradientUnits="userSpaceOnUse">
<stop stop-color="#046BB1"/>
<stop offset="0.95" stop-color="#025CA1"/>
</linearGradient>
<linearGradient id="paint16_linear_22_46634" x1="266.239" y1="312.058" x2="269.374" y2="311.597" gradientUnits="userSpaceOnUse">
<stop stop-color="#046BB1"/>
<stop offset="0.95" stop-color="#025CA1"/>
</linearGradient>
<linearGradient id="paint17_linear_22_46634" x1="249.763" y1="107.501" x2="252.93" y2="107.035" gradientUnits="userSpaceOnUse">
<stop stop-color="#046BB1"/>
<stop offset="0.95" stop-color="#025CA1"/>
</linearGradient>
<linearGradient id="paint18_linear_22_46634" x1="352.209" y1="404.913" x2="364.882" y2="410.189" gradientUnits="userSpaceOnUse">
<stop stop-color="#046BB1"/>
<stop offset="0.95" stop-color="#025CA1"/>
</linearGradient>
<linearGradient id="paint19_linear_22_46634" x1="222.778" y1="356.077" x2="230.861" y2="359.444" gradientUnits="userSpaceOnUse">
<stop stop-color="#046BB1"/>
<stop offset="0.95" stop-color="#025CA1"/>
</linearGradient>
<linearGradient id="paint20_linear_22_46634" x1="1377.26" y1="1455.57" x2="1425.21" y2="1441.45" gradientUnits="userSpaceOnUse">
<stop stop-color="#046BB1"/>
<stop offset="0.95" stop-color="#025CA1"/>
</linearGradient>
<linearGradient id="paint21_linear_22_46634" x1="1247.87" y1="379.178" x2="1304.12" y2="362.617" gradientUnits="userSpaceOnUse">
<stop stop-color="#046BB1"/>
<stop offset="0.95" stop-color="#025CA1"/>
</linearGradient>
<linearGradient id="paint22_linear_22_46634" x1="485.715" y1="683.302" x2="529.293" y2="701.448" gradientUnits="userSpaceOnUse">
<stop stop-color="#046BB1"/>
<stop offset="0.95" stop-color="#025CA1"/>
</linearGradient>
<linearGradient id="paint23_linear_22_46634" x1="260.228" y1="604.075" x2="288.043" y2="615.657" gradientUnits="userSpaceOnUse">
<stop stop-color="#046BB1"/>
<stop offset="0.95" stop-color="#025CA1"/>
</linearGradient>
<linearGradient id="paint24_linear_22_46634" x1="381.425" y1="405.757" x2="385.229" y2="404.216" gradientUnits="userSpaceOnUse">
<stop stop-color="#046BB1"/>
<stop offset="0.95" stop-color="#025CA1"/>
</linearGradient>
<linearGradient id="paint25_linear_22_46634" x1="354.22" y1="92.4471" x2="359.314" y2="90.3837" gradientUnits="userSpaceOnUse">
<stop stop-color="#046BB1"/>
<stop offset="0.95" stop-color="#025CA1"/>
</linearGradient>
<radialGradient id="paint26_radial_22_46634" cx="0" cy="0" r="1" gradientUnits="userSpaceOnUse" gradientTransform="translate(649.816 828.363) scale(18.0301 17.5458)">
<stop stop-color="#F5FEFF"/>
<stop offset="0.55" stop-color="#84E4F4"/>
<stop offset="1"/>
</radialGradient>
<radialGradient id="paint27_radial_22_46634" cx="0" cy="0" r="1" gradientUnits="userSpaceOnUse" gradientTransform="translate(1776.04 46.5047) scale(66.2475 0.133085)">
<stop stop-color="#F5FEFF"/>
<stop offset="0.55" stop-color="#84E4F4"/>
<stop offset="1"/>
</radialGradient>
<radialGradient id="paint28_radial_22_46634" cx="0" cy="0" r="1" gradientUnits="userSpaceOnUse" gradientTransform="translate(21.5198 140.816) rotate(90) scale(2.98532 2.9569)">
<stop stop-color="#F5FEFF"/>
<stop offset="0.55" stop-color="#84E4F4"/>
<stop offset="1"/>
</radialGradient>
<radialGradient id="paint29_radial_22_46634" cx="0" cy="0" r="1" gradientUnits="userSpaceOnUse" gradientTransform="translate(806.257 218.161) rotate(44.2203) scale(46.2769 2.06401)">
<stop stop-color="#F5FEFF"/>
<stop offset="0.55" stop-color="#84E4F4"/>
<stop offset="1"/>
</radialGradient>
<radialGradient id="paint30_radial_22_46634" cx="0" cy="0" r="1" gradientUnits="userSpaceOnUse" gradientTransform="translate(-660.789 -47.1442) rotate(135.776) scale(46.3097 2.06368)">
<stop stop-color="#F5FEFF"/>
<stop offset="0.55" stop-color="#84E4F4"/>
<stop offset="1"/>
</radialGradient>
<radialGradient id="paint31_radial_22_46634" cx="0" cy="0" r="1" gradientUnits="userSpaceOnUse" gradientTransform="translate(682.179 1066.93) scale(17.9811 17.4993)">
<stop stop-color="#F5FEFF"/>
<stop offset="0.55" stop-color="#84E4F4"/>
<stop offset="1"/>
</radialGradient>
<radialGradient id="paint32_radial_22_46634" cx="0" cy="0" r="1" gradientUnits="userSpaceOnUse" gradientTransform="translate(1841.32 66.6875) scale(66.2945 0.133085)">
<stop stop-color="#F5FEFF"/>
<stop offset="0.55" stop-color="#84E4F4"/>
<stop offset="1"/>
</radialGradient>
<radialGradient id="paint33_radial_22_46634" cx="0" cy="0" r="1" gradientUnits="userSpaceOnUse" gradientTransform="translate(75.2289 165.762) rotate(90) scale(2.98525 2.95367)">
<stop stop-color="#F5FEFF"/>
<stop offset="0.55" stop-color="#84E4F4"/>
<stop offset="1"/>
</radialGradient>
<radialGradient id="paint34_radial_22_46634" cx="0" cy="0" r="1" gradientUnits="userSpaceOnUse" gradientTransform="translate(854.834 508.577) rotate(44.2222) scale(46.3049 2.06396)">
<stop stop-color="#F5FEFF"/>
<stop offset="0.55" stop-color="#84E4F4"/>
<stop offset="1"/>
</radialGradient>
<radialGradient id="paint35_radial_22_46634" cx="0" cy="0" r="1" gradientUnits="userSpaceOnUse" gradientTransform="translate(-631.573 238.777) rotate(135.778) scale(46.308 2.06378)">
<stop stop-color="#F5FEFF"/>
<stop offset="0.55" stop-color="#84E4F4"/>
<stop offset="1"/>
</radialGradient>
<radialGradient id="paint36_radial_22_46634" cx="0" cy="0" r="1" gradientUnits="userSpaceOnUse" gradientTransform="translate(779.123 562.69) rotate(-16.3161) scale(8.86438 8.66513)">
<stop stop-color="#F5FEFF"/>
<stop offset="0.55" stop-color="#84E4F4"/>
<stop offset="1"/>
</radialGradient>
<radialGradient id="paint37_radial_22_46634" cx="0" cy="0" r="1" gradientUnits="userSpaceOnUse" gradientTransform="translate(1378.84 -396.118) rotate(-16.2752) scale(31.0665 0.423594)">
<stop stop-color="#F5FEFF"/>
<stop offset="0.55" stop-color="#84E4F4"/>
<stop offset="1"/>
</radialGradient>
<radialGradient id="paint38_radial_22_46634" cx="0" cy="0" r="1" gradientUnits="userSpaceOnUse" gradientTransform="translate(320.712 206.322) rotate(72.8695) scale(9.14478 1.44219)">
<stop stop-color="#F5FEFF"/>
<stop offset="0.55" stop-color="#84E4F4"/>
<stop offset="1"/>
</radialGradient>
<radialGradient id="paint39_radial_22_46634" cx="0" cy="0" r="1" gradientUnits="userSpaceOnUse" gradientTransform="translate(936.491 355.396) rotate(27.5594) scale(28.4634 0.645137)">
<stop stop-color="#F5FEFF"/>
<stop offset="0.55" stop-color="#84E4F4"/>
<stop offset="1"/>
</radialGradient>
<radialGradient id="paint40_radial_22_46634" cx="0" cy="0" r="1" gradientUnits="userSpaceOnUse" gradientTransform="translate(-217.625 221.85) rotate(118.853) scale(15.07 1.21724)">
<stop stop-color="#F5FEFF"/>
<stop offset="0.55" stop-color="#84E4F4"/>
<stop offset="1"/>
</radialGradient>
<radialGradient id="paint41_radial_22_46634" cx="0" cy="0" r="1" gradientUnits="userSpaceOnUse" gradientTransform="translate(254.866 483.394) rotate(16.0822) scale(6.33418 6.19126)">
<stop stop-color="#F5FEFF"/>
<stop offset="0.55" stop-color="#84E4F4"/>
<stop offset="1"/>
</radialGradient>
<radialGradient id="paint42_radial_22_46634" cx="0" cy="0" r="1" gradientUnits="userSpaceOnUse" gradientTransform="translate(985.654 183.641) rotate(16.174) scale(22.4811 0.29657)">
<stop stop-color="#F5FEFF"/>
<stop offset="0.55" stop-color="#84E4F4"/>
<stop offset="1"/>
</radialGradient>
<radialGradient id="paint43_radial_22_46634" cx="0" cy="0" r="1" gradientUnits="userSpaceOnUse" gradientTransform="translate(-65.9994 135.052) rotate(107.021) scale(6.44614 1.037)">
<stop stop-color="#F5FEFF"/>
<stop offset="0.55" stop-color="#84E4F4"/>
<stop offset="1"/>
</radialGradient>
<radialGradient id="paint44_radial_22_46634" cx="0" cy="0" r="1" gradientUnits="userSpaceOnUse" gradientTransform="translate(465.398 90.5846) rotate(60.822) scale(10.9575 0.87286)">
<stop stop-color="#F5FEFF"/>
<stop offset="0.55" stop-color="#84E4F4"/>
<stop offset="1"/>
</radialGradient>
<radialGradient id="paint45_radial_22_46634" cx="0" cy="0" r="1" gradientUnits="userSpaceOnUse" gradientTransform="translate(-322.237 -60.6705) rotate(152.126) scale(20.5108 0.466487)">
<stop stop-color="#F5FEFF"/>
<stop offset="0.55" stop-color="#84E4F4"/>
<stop offset="1"/>
</radialGradient>
<radialGradient id="paint46_radial_22_46634" cx="0" cy="0" r="1" gradientUnits="userSpaceOnUse" gradientTransform="translate(274.179 785.922) rotate(22.9347) scale(9.83226 9.65537)">
<stop stop-color="#F5FEFF"/>
<stop offset="0.55" stop-color="#84E4F4"/>
<stop offset="1"/>
</radialGradient>
<radialGradient id="paint47_radial_22_46634" cx="0" cy="0" r="1" gradientUnits="userSpaceOnUse" gradientTransform="translate(1292.65 362.501) rotate(23.0619) scale(33.1192 0.688759)">
<stop stop-color="#F5FEFF"/>
<stop offset="0.55" stop-color="#84E4F4"/>
<stop offset="1"/>
</radialGradient>
<radialGradient id="paint48_radial_22_46634" cx="0" cy="0" r="1" gradientUnits="userSpaceOnUse" gradientTransform="translate(-12.6897 269.582) rotate(114.202) scale(14.218 1.60407)">
<stop stop-color="#F5FEFF"/>
<stop offset="0.55" stop-color="#84E4F4"/>
<stop offset="1"/>
</radialGradient>
<radialGradient id="paint49_radial_22_46634" cx="0" cy="0" r="1" gradientUnits="userSpaceOnUse" gradientTransform="translate(632.443 160.306) rotate(68.1408) scale(12.912 1.6326)">
<stop stop-color="#F5FEFF"/>
<stop offset="0.55" stop-color="#84E4F4"/>
<stop offset="1"/>
</radialGradient>
<radialGradient id="paint50_radial_22_46634" cx="0" cy="0" r="1" gradientUnits="userSpaceOnUse" gradientTransform="translate(-404.434 10.3733) rotate(159.196) scale(33.589 0.625367)">
<stop stop-color="#F5FEFF"/>
<stop offset="0.55" stop-color="#84E4F4"/>
<stop offset="1"/>
</radialGradient>
<radialGradient id="paint51_radial_22_46634" cx="0" cy="0" r="1" gradientUnits="userSpaceOnUse" gradientTransform="translate(841.923 626.108) rotate(-16.3144) scale(8.86553 8.66541)">
<stop stop-color="#F5FEFF"/>
<stop offset="0.55" stop-color="#84E4F4"/>
<stop offset="1"/>
</radialGradient>
<radialGradient id="paint52_radial_22_46634" cx="0" cy="0" r="1" gradientUnits="userSpaceOnUse" gradientTransform="translate(1459.36 -379.874) rotate(-16.2771) scale(31.1606 0.426375)">
<stop stop-color="#F5FEFF"/>
<stop offset="0.55" stop-color="#84E4F4"/>
<stop offset="1"/>
</radialGradient>
<radialGradient id="paint53_radial_22_46634" cx="0" cy="0" r="1" gradientUnits="userSpaceOnUse" gradientTransform="translate(391.812 240.474) rotate(72.8659) scale(9.14519 1.44401)">
<stop stop-color="#F5FEFF"/>
<stop offset="0.55" stop-color="#84E4F4"/>
<stop offset="1"/>
</radialGradient>
<radialGradient id="paint54_radial_22_46634" cx="0" cy="0" r="1" gradientUnits="userSpaceOnUse" gradientTransform="translate(1045.6 437.86) rotate(27.5575) scale(28.4653 0.645148)">
<stop stop-color="#F5FEFF"/>
<stop offset="0.55" stop-color="#84E4F4"/>
<stop offset="1"/>
</radialGradient>
<radialGradient id="paint55_radial_22_46634" cx="0" cy="0" r="1" gradientUnits="userSpaceOnUse" gradientTransform="translate(-136.96 303.637) rotate(118.854) scale(15.0697 1.21859)">
<stop stop-color="#F5FEFF"/>
<stop offset="0.55" stop-color="#84E4F4"/>
<stop offset="1"/>
</radialGradient>
<radialGradient id="paint56_radial_22_46634" cx="0" cy="0" r="1" gradientUnits="userSpaceOnUse" gradientTransform="translate(238.041 366.233) rotate(0.557604) scale(2.33999 2.27746)">
<stop stop-color="#F5FEFF"/>
<stop offset="0.55" stop-color="#84E4F4"/>
<stop offset="1"/>
</radialGradient>
<radialGradient id="paint57_radial_22_46634" cx="0" cy="0" r="1" gradientUnits="userSpaceOnUse" gradientTransform="translate(650.438 81.7288) rotate(0.709868) scale(8.5902 0.0208857)">
<stop stop-color="#F5FEFF"/>
<stop offset="0.55" stop-color="#84E4F4"/>
<stop offset="1"/>
</radialGradient>
<radialGradient id="paint58_radial_22_46634" cx="0" cy="0" r="1" gradientUnits="userSpaceOnUse" gradientTransform="translate(5.16919 138.678) rotate(90.7514) scale(0.466206 0.384413)">
<stop stop-color="#F5FEFF"/>
<stop offset="0.55" stop-color="#84E4F4"/>
<stop offset="1"/>
</radialGradient>
<radialGradient id="paint59_radial_22_46634" cx="0" cy="0" r="1" gradientUnits="userSpaceOnUse" gradientTransform="translate(301.842 191.688) rotate(44.7424) scale(5.91853 0.277598)">
<stop stop-color="#F5FEFF"/>
<stop offset="0.55" stop-color="#84E4F4"/>
<stop offset="1"/>
</radialGradient>
<radialGradient id="paint60_radial_22_46634" cx="0" cy="0" r="1" gradientUnits="userSpaceOnUse" gradientTransform="translate(-257.875 111.063) rotate(136.296) scale(6.0687 0.266518)">
<stop stop-color="#F5FEFF"/>
<stop offset="0.55" stop-color="#84E4F4"/>
<stop offset="1"/>
</radialGradient>
<radialGradient id="paint61_radial_22_46634" cx="0" cy="0" r="1" gradientUnits="userSpaceOnUse" gradientTransform="translate(104.98 159.795) rotate(11.2302) scale(0.536233 0.500036)">
<stop stop-color="#F5FEFF"/>
<stop offset="0.55" stop-color="#84E4F4"/>
<stop offset="1"/>
</radialGradient>
<radialGradient id="paint62_radial_22_46634" cx="0" cy="0" r="1" gradientUnits="userSpaceOnUse" gradientTransform="translate(307.322 117.523) rotate(11.4399) scale(1.95563 0.0177529)">
<stop stop-color="#F5FEFF"/>
<stop offset="0.55" stop-color="#84E4F4"/>
<stop offset="1"/>
</radialGradient>
<radialGradient id="paint63_radial_22_46634" cx="0" cy="0" r="1" gradientUnits="userSpaceOnUse" gradientTransform="translate(-29.0287 145.787) rotate(102.045) scale(0.395501 0.0876944)">
<stop stop-color="#F5FEFF"/>
<stop offset="0.55" stop-color="#84E4F4"/>
<stop offset="1"/>
</radialGradient>
<radialGradient id="paint64_radial_22_46634" cx="0" cy="0" r="1" gradientUnits="userSpaceOnUse" gradientTransform="translate(147.131 117.578) rotate(56.0056) scale(1.08168 0.0756203)">
<stop stop-color="#F5FEFF"/>
<stop offset="0.55" stop-color="#84E4F4"/>
<stop offset="1"/>
</radialGradient>
<radialGradient id="paint65_radial_22_46634" cx="0" cy="0" r="1" gradientUnits="userSpaceOnUse" gradientTransform="translate(-144.002 77.6975) rotate(147.422) scale(1.63612 0.0494009)">
<stop stop-color="#F5FEFF"/>
<stop offset="0.55" stop-color="#84E4F4"/>
<stop offset="1"/>
</radialGradient>
<radialGradient id="paint66_radial_22_46634" cx="0" cy="0" r="1" gradientUnits="userSpaceOnUse" gradientTransform="translate(289.52 341.609) rotate(0.557602) scale(2.33999 2.27736)">
<stop stop-color="#F5FEFF"/>
<stop offset="0.55" stop-color="#84E4F4"/>
<stop offset="1"/>
</radialGradient>
<radialGradient id="paint67_radial_22_46634" cx="0" cy="0" r="1" gradientUnits="userSpaceOnUse" gradientTransform="translate(744.99 80.865) rotate(0.71039) scale(8.60591 0.0204142)">
<stop stop-color="#F5FEFF"/>
<stop offset="0.55" stop-color="#84E4F4"/>
<stop offset="1"/>
</radialGradient>
<radialGradient id="paint68_radial_22_46634" cx="0" cy="0" r="1" gradientUnits="userSpaceOnUse" gradientTransform="translate(74.3902 157.885) rotate(90.7492) scale(0.468774 0.382544)">
<stop stop-color="#F5FEFF"/>
<stop offset="0.55" stop-color="#84E4F4"/>
<stop offset="1"/>
</radialGradient>
<radialGradient id="paint69_radial_22_46634" cx="0" cy="0" r="1" gradientUnits="userSpaceOnUse" gradientTransform="translate(365.682 183.374) rotate(44.7371) scale(5.91919 0.273233)">
<stop stop-color="#F5FEFF"/>
<stop offset="0.55" stop-color="#84E4F4"/>
<stop offset="1"/>
</radialGradient>
<radialGradient id="paint70_radial_22_46634" cx="0" cy="0" r="1" gradientUnits="userSpaceOnUse" gradientTransform="translate(-222.59 100.472) rotate(136.3) scale(6.08501 0.26725)">
<stop stop-color="#F5FEFF"/>
<stop offset="0.55" stop-color="#84E4F4"/>
<stop offset="1"/>
</radialGradient>
<radialGradient id="paint71_radial_22_46634" cx="0" cy="0" r="1" gradientUnits="userSpaceOnUse" gradientTransform="translate(322.296 390.308) rotate(0.557477) scale(2.34062 2.27746)">
<stop stop-color="#F5FEFF"/>
<stop offset="0.55" stop-color="#84E4F4"/>
<stop offset="1"/>
</radialGradient>
<radialGradient id="paint72_radial_22_46634" cx="0" cy="0" r="1" gradientUnits="userSpaceOnUse" gradientTransform="translate(805.562 85.9835) rotate(0.71045) scale(8.60591 0.0206762)">
<stop stop-color="#F5FEFF"/>
<stop offset="0.55" stop-color="#84E4F4"/>
<stop offset="1"/>
</radialGradient>
<radialGradient id="paint73_radial_22_46634" cx="0" cy="0" r="1" gradientUnits="userSpaceOnUse" gradientTransform="translate(118.28 175.113) rotate(90.7495) scale(0.468555 0.382723)">
<stop stop-color="#F5FEFF"/>
<stop offset="0.55" stop-color="#84E4F4"/>
<stop offset="1"/>
</radialGradient>
<radialGradient id="paint74_radial_22_46634" cx="0" cy="0" r="1" gradientUnits="userSpaceOnUse" gradientTransform="translate(406.952 241.178) rotate(44.7381) scale(5.91928 0.273238)">
<stop stop-color="#F5FEFF"/>
<stop offset="0.55" stop-color="#84E4F4"/>
<stop offset="1"/>
</radialGradient>
<radialGradient id="paint75_radial_22_46634" cx="0" cy="0" r="1" gradientUnits="userSpaceOnUse" gradientTransform="translate(-201.249 155.687) rotate(136.29) scale(6.06808 0.266493)">
<stop stop-color="#F5FEFF"/>
<stop offset="0.55" stop-color="#84E4F4"/>
<stop offset="1"/>
</radialGradient>
<radialGradient id="paint76_radial_22_46634" cx="0" cy="0" r="1" gradientUnits="userSpaceOnUse" gradientTransform="translate(263.383 277.001) rotate(0.557572) scale(2.33999 2.27736)">
<stop stop-color="#F5FEFF"/>
<stop offset="0.55" stop-color="#84E4F4"/>
<stop offset="1"/>
</radialGradient>
<radialGradient id="paint77_radial_22_46634" cx="0" cy="0" r="1" gradientUnits="userSpaceOnUse" gradientTransform="translate(694.893 73.8397) rotate(0.710165) scale(8.5902 0.0208945)">
<stop stop-color="#F5FEFF"/>
<stop offset="0.55" stop-color="#84E4F4"/>
<stop offset="1"/>
</radialGradient>
<radialGradient id="paint78_radial_22_46634" cx="0" cy="0" r="1" gradientUnits="userSpaceOnUse" gradientTransform="translate(39.5379 142.049) rotate(90.7517) scale(0.4637 0.384525)">
<stop stop-color="#F5FEFF"/>
<stop offset="0.55" stop-color="#84E4F4"/>
<stop offset="1"/>
</radialGradient>
<radialGradient id="paint79_radial_22_46634" cx="0" cy="0" r="1" gradientUnits="userSpaceOnUse" gradientTransform="translate(334.908 109.673) rotate(44.7366) scale(5.91913 0.276893)">
<stop stop-color="#F5FEFF"/>
<stop offset="0.55" stop-color="#84E4F4"/>
<stop offset="1"/>
</radialGradient>
<radialGradient id="paint80_radial_22_46634" cx="0" cy="0" r="1" gradientUnits="userSpaceOnUse" gradientTransform="translate(-238.614 32.6696) rotate(136.297) scale(6.14974 0.266504)">
<stop stop-color="#F5FEFF"/>
<stop offset="0.55" stop-color="#84E4F4"/>
<stop offset="1"/>
</radialGradient>
<radialGradient id="paint81_radial_22_46634" cx="0" cy="0" r="1" gradientUnits="userSpaceOnUse" gradientTransform="translate(15.4483 332.91) rotate(27.2822) scale(2.32317 2.29043)">
<stop stop-color="#F5FEFF"/>
<stop offset="0.55" stop-color="#84E4F4"/>
<stop offset="1"/>
</radialGradient>
<radialGradient id="paint82_radial_22_46634" cx="0" cy="0" r="1" gradientUnits="userSpaceOnUse" gradientTransform="translate(405.649 140.457) rotate(27.3864) scale(7.57859 0.168197)">
<stop stop-color="#F5FEFF"/>
<stop offset="0.55" stop-color="#84E4F4"/>
<stop offset="1"/>
</radialGradient>
<radialGradient id="paint83_radial_22_46634" cx="0" cy="0" r="1" gradientUnits="userSpaceOnUse" gradientTransform="translate(-188.445 85.4966) rotate(118.68) scale(3.96688 0.321943)">
<stop stop-color="#F5FEFF"/>
<stop offset="0.55" stop-color="#84E4F4"/>
<stop offset="1"/>
</radialGradient>
<radialGradient id="paint84_radial_22_46634" cx="0" cy="0" r="1" gradientUnits="userSpaceOnUse" gradientTransform="translate(150.622 129.538) rotate(72.5054) scale(2.45908 0.379816)">
<stop stop-color="#F5FEFF"/>
<stop offset="0.55" stop-color="#84E4F4"/>
<stop offset="1"/>
</radialGradient>
<radialGradient id="paint85_radial_22_46634" cx="0" cy="0" r="1" gradientUnits="userSpaceOnUse" gradientTransform="translate(-328.296 62.3581) rotate(163.383) scale(8.20262 0.114814)">
<stop stop-color="#F5FEFF"/>
<stop offset="0.55" stop-color="#84E4F4"/>
<stop offset="1"/>
</radialGradient>
<radialGradient id="paint86_radial_22_46634" cx="0" cy="0" r="1" gradientUnits="userSpaceOnUse" gradientTransform="translate(367.502 906.573) rotate(16.4742) scale(17.9446 17.5383)">
<stop stop-color="#F5FEFF"/>
<stop offset="0.55" stop-color="#84E4F4"/>
<stop offset="1"/>
</radialGradient>
<radialGradient id="paint87_radial_22_46634" cx="0" cy="0" r="1" gradientUnits="userSpaceOnUse" gradientTransform="translate(1595.33 284.573) rotate(16.6174) scale(63.1401 0.881132)">
<stop stop-color="#F5FEFF"/>
<stop offset="0.55" stop-color="#84E4F4"/>
<stop offset="1"/>
</radialGradient>
<radialGradient id="paint88_radial_22_46634" cx="0" cy="0" r="1" gradientUnits="userSpaceOnUse" gradientTransform="translate(-140.262 184.054) rotate(107.49) scale(19.0163 2.92669)">
<stop stop-color="#F5FEFF"/>
<stop offset="0.55" stop-color="#84E4F4"/>
<stop offset="1"/>
</radialGradient>
<radialGradient id="paint89_radial_22_46634" cx="0" cy="0" r="1" gradientUnits="userSpaceOnUse" gradientTransform="translate(698.412 176.239) rotate(61.3193) scale(30.747 2.48272)">
<stop stop-color="#F5FEFF"/>
<stop offset="0.55" stop-color="#84E4F4"/>
<stop offset="1"/>
</radialGradient>
<radialGradient id="paint90_radial_22_46634" cx="0" cy="0" r="1" gradientUnits="userSpaceOnUse" gradientTransform="translate(-610.08 -70.3546) rotate(152.611) scale(58.3171 1.31041)">
<stop stop-color="#F5FEFF"/>
<stop offset="0.55" stop-color="#84E4F4"/>
<stop offset="1"/>
</radialGradient>
<radialGradient id="paint91_radial_22_46634" cx="0" cy="0" r="1" gradientUnits="userSpaceOnUse" gradientTransform="translate(169.925 1113.82) rotate(16.472) scale(17.9409 17.5385)">
<stop stop-color="#F5FEFF"/>
<stop offset="0.55" stop-color="#84E4F4"/>
<stop offset="1"/>
</radialGradient>
<radialGradient id="paint92_radial_22_46634" cx="0" cy="0" r="1" gradientUnits="userSpaceOnUse" gradientTransform="translate(1341.46 346.104) rotate(16.6185) scale(63.1371 0.882088)">
<stop stop-color="#F5FEFF"/>
<stop offset="0.55" stop-color="#84E4F4"/>
<stop offset="1"/>
</radialGradient>
<radialGradient id="paint93_radial_22_46634" cx="0" cy="0" r="1" gradientUnits="userSpaceOnUse" gradientTransform="translate(-355.731 223.02) rotate(107.49) scale(19.0164 2.92881)">
<stop stop-color="#F5FEFF"/>
<stop offset="0.55" stop-color="#84E4F4"/>
<stop offset="1"/>
</radialGradient>
<radialGradient id="paint94_radial_22_46634" cx="0" cy="0" r="1" gradientUnits="userSpaceOnUse" gradientTransform="translate(383.696 383.042) rotate(61.3231) scale(30.7837 2.48256)">
<stop stop-color="#F5FEFF"/>
<stop offset="0.55" stop-color="#84E4F4"/>
<stop offset="1"/>
</radialGradient>
<radialGradient id="paint95_radial_22_46634" cx="0" cy="0" r="1" gradientUnits="userSpaceOnUse" gradientTransform="translate(-905.342 166.138) rotate(152.611) scale(58.3173 1.31043)">
<stop stop-color="#F5FEFF"/>
<stop offset="0.55" stop-color="#84E4F4"/>
<stop offset="1"/>
</radialGradient>
</defs>
</svg>
